%TF.GenerationSoftware,KiCad,Pcbnew,7.0.7*%
%TF.CreationDate,2024-01-27T11:11:08-08:00*%
%TF.ProjectId,KASM_PCB_REV1,4b41534d-5f50-4434-925f-524556312e6b,rev?*%
%TF.SameCoordinates,Original*%
%TF.FileFunction,Copper,L4,Bot*%
%TF.FilePolarity,Positive*%
%FSLAX46Y46*%
G04 Gerber Fmt 4.6, Leading zero omitted, Abs format (unit mm)*
G04 Created by KiCad (PCBNEW 7.0.7) date 2024-01-27 11:11:08*
%MOMM*%
%LPD*%
G01*
G04 APERTURE LIST*
G04 Aperture macros list*
%AMRoundRect*
0 Rectangle with rounded corners*
0 $1 Rounding radius*
0 $2 $3 $4 $5 $6 $7 $8 $9 X,Y pos of 4 corners*
0 Add a 4 corners polygon primitive as box body*
4,1,4,$2,$3,$4,$5,$6,$7,$8,$9,$2,$3,0*
0 Add four circle primitives for the rounded corners*
1,1,$1+$1,$2,$3*
1,1,$1+$1,$4,$5*
1,1,$1+$1,$6,$7*
1,1,$1+$1,$8,$9*
0 Add four rect primitives between the rounded corners*
20,1,$1+$1,$2,$3,$4,$5,0*
20,1,$1+$1,$4,$5,$6,$7,0*
20,1,$1+$1,$6,$7,$8,$9,0*
20,1,$1+$1,$8,$9,$2,$3,0*%
G04 Aperture macros list end*
%TA.AperFunction,ComponentPad*%
%ADD10RoundRect,0.200000X0.200000X0.450000X-0.200000X0.450000X-0.200000X-0.450000X0.200000X-0.450000X0*%
%TD*%
%TA.AperFunction,ComponentPad*%
%ADD11O,0.800000X1.300000*%
%TD*%
%TA.AperFunction,ComponentPad*%
%ADD12R,1.700000X1.700000*%
%TD*%
%TA.AperFunction,ComponentPad*%
%ADD13O,1.700000X1.700000*%
%TD*%
%TA.AperFunction,ComponentPad*%
%ADD14C,5.600000*%
%TD*%
%TA.AperFunction,ComponentPad*%
%ADD15C,0.600000*%
%TD*%
%TA.AperFunction,SMDPad,CuDef*%
%ADD16R,2.950000X4.500000*%
%TD*%
%TA.AperFunction,ComponentPad*%
%ADD17R,2.000000X4.600000*%
%TD*%
%TA.AperFunction,ComponentPad*%
%ADD18O,2.000000X4.200000*%
%TD*%
%TA.AperFunction,ComponentPad*%
%ADD19O,4.200000X2.000000*%
%TD*%
%TA.AperFunction,ComponentPad*%
%ADD20R,2.600000X2.600000*%
%TD*%
%TA.AperFunction,ComponentPad*%
%ADD21C,2.600000*%
%TD*%
%TA.AperFunction,ViaPad*%
%ADD22C,0.600000*%
%TD*%
%TA.AperFunction,Conductor*%
%ADD23C,0.100000*%
%TD*%
%TA.AperFunction,Conductor*%
%ADD24C,0.254000*%
%TD*%
G04 APERTURE END LIST*
D10*
%TO.P,J38,1,Pin_1*%
%TO.N,Net-(J38-Pin_1)*%
X116974726Y-88409616D03*
D11*
%TO.P,J38,2,Pin_2*%
%TO.N,Net-(J38-Pin_2)*%
X115724726Y-88409616D03*
%TD*%
D12*
%TO.P,J7,1,Pin_1*%
%TO.N,UART4_RX*%
X146735800Y-48260000D03*
D13*
%TO.P,J7,2,Pin_2*%
%TO.N,GND*%
X149275800Y-48260000D03*
%TO.P,J7,3,Pin_3*%
%TO.N,UART4_TX*%
X151815800Y-48260000D03*
%TD*%
D10*
%TO.P,J44,1,Pin_1*%
%TO.N,Net-(J44-Pin_1)*%
X89146852Y-102713200D03*
D11*
%TO.P,J44,2,Pin_2*%
%TO.N,Net-(J44-Pin_2)*%
X87896852Y-102713200D03*
%TD*%
D14*
%TO.P,H2,1,1*%
%TO.N,GND*%
X68580000Y-146050000D03*
%TD*%
D10*
%TO.P,J8,1,Pin_1*%
%TO.N,Net-(J8-Pin_1)*%
X75260474Y-130043600D03*
D11*
%TO.P,J8,2,Pin_2*%
%TO.N,Net-(J8-Pin_2)*%
X74010474Y-130043600D03*
%TD*%
D10*
%TO.P,J40,1,Pin_1*%
%TO.N,Net-(J40-Pin_1)*%
X89752063Y-143658000D03*
D11*
%TO.P,J40,2,Pin_2*%
%TO.N,Net-(J40-Pin_2)*%
X88502063Y-143658000D03*
%TD*%
D12*
%TO.P,J5,1,Pin_1*%
%TO.N,+3.3V*%
X177165000Y-58420000D03*
D13*
%TO.P,J5,2,Pin_2*%
%TO.N,DEBUG_JTCK-SWCLK*%
X177165000Y-60960000D03*
%TO.P,J5,3,Pin_3*%
%TO.N,GND*%
X177165000Y-63500000D03*
%TO.P,J5,4,Pin_4*%
%TO.N,DEBUG_JTMS-SWDIO*%
X177165000Y-66040000D03*
%TO.P,J5,5,Pin_5*%
%TO.N,/MCU/NRST*%
X177165000Y-68580000D03*
%TO.P,J5,6,Pin_6*%
%TO.N,DEBUG_JTDO-SWO*%
X177165000Y-71120000D03*
%TD*%
D15*
%TO.P,U1,9,GNDPAD*%
%TO.N,GND*%
X144526000Y-119456200D03*
X144526000Y-120656200D03*
X144526000Y-121956200D03*
X144526000Y-123056200D03*
D16*
X145126000Y-121256200D03*
D15*
X145726000Y-119456200D03*
X145726000Y-120656200D03*
X145726000Y-121956200D03*
X145726000Y-123056200D03*
%TD*%
D10*
%TO.P,J35,1,Pin_1*%
%TO.N,Net-(J35-Pin_1)*%
X110046663Y-58182600D03*
D11*
%TO.P,J35,2,Pin_2*%
%TO.N,Net-(J35-Pin_2)*%
X108796663Y-58182600D03*
%TD*%
D14*
%TO.P,H4,1,1*%
%TO.N,GND*%
X176530000Y-146050000D03*
%TD*%
D10*
%TO.P,J13,1,Pin_1*%
%TO.N,Net-(J13-Pin_1)*%
X82215863Y-58125574D03*
D11*
%TO.P,J13,2,Pin_2*%
%TO.N,Net-(J13-Pin_2)*%
X80965863Y-58125574D03*
%TD*%
D10*
%TO.P,J48,1,Pin_1*%
%TO.N,Net-(J48-Pin_1)*%
X102890863Y-116493589D03*
D11*
%TO.P,J48,2,Pin_2*%
%TO.N,Net-(J48-Pin_2)*%
X101640863Y-116493589D03*
%TD*%
D10*
%TO.P,J43,1,Pin_1*%
%TO.N,Net-(J43-Pin_1)*%
X103056852Y-102713200D03*
D11*
%TO.P,J43,2,Pin_2*%
%TO.N,Net-(J43-Pin_2)*%
X101806852Y-102713200D03*
%TD*%
D15*
%TO.P,U2,V*%
%TO.N,GND*%
X146053701Y-140792699D03*
X146053701Y-140005299D03*
X145266301Y-140792699D03*
X145266301Y-140005299D03*
%TD*%
D10*
%TO.P,J52,1,Pin_1*%
%TO.N,Net-(J52-Pin_1)*%
X89693910Y-129933600D03*
D11*
%TO.P,J52,2,Pin_2*%
%TO.N,Net-(J52-Pin_2)*%
X88443910Y-129933600D03*
%TD*%
D10*
%TO.P,J50,1,Pin_1*%
%TO.N,Net-(J50-Pin_1)*%
X95423488Y-58208000D03*
D11*
%TO.P,J50,2,Pin_2*%
%TO.N,Net-(J50-Pin_2)*%
X94173488Y-58208000D03*
%TD*%
D10*
%TO.P,J56,1,Pin_1*%
%TO.N,Net-(J56-Pin_1)*%
X88891497Y-73138994D03*
D11*
%TO.P,J56,2,Pin_2*%
%TO.N,Net-(J56-Pin_2)*%
X87641497Y-73138994D03*
%TD*%
D12*
%TO.P,J3,1,Pin_1*%
%TO.N,/MCU/CAP_SENSOR_OUT_1*%
X175900000Y-97678233D03*
D13*
%TO.P,J3,2,Pin_2*%
%TO.N,/MCU/CAP_SENSOR_RET_1*%
X175900000Y-100218233D03*
%TD*%
D10*
%TO.P,J37,1,Pin_1*%
%TO.N,Net-(J37-Pin_1)*%
X88980863Y-116493589D03*
D11*
%TO.P,J37,2,Pin_2*%
%TO.N,Net-(J37-Pin_2)*%
X87730863Y-116493589D03*
%TD*%
D10*
%TO.P,J54,1,Pin_1*%
%TO.N,Net-(J54-Pin_1)*%
X75244726Y-88409616D03*
D11*
%TO.P,J54,2,Pin_2*%
%TO.N,Net-(J54-Pin_2)*%
X73994726Y-88409616D03*
%TD*%
D10*
%TO.P,J41,1,Pin_1*%
%TO.N,Net-(J41-Pin_1)*%
X89154726Y-88409616D03*
D11*
%TO.P,J41,2,Pin_2*%
%TO.N,Net-(J41-Pin_2)*%
X87904726Y-88409616D03*
%TD*%
D10*
%TO.P,J58,1,Pin_1*%
%TO.N,Net-(J58-Pin_1)*%
X116800863Y-116493589D03*
D11*
%TO.P,J58,2,Pin_2*%
%TO.N,Net-(J58-Pin_2)*%
X115550863Y-116493589D03*
%TD*%
D10*
%TO.P,J46,1,Pin_1*%
%TO.N,Net-(J46-Pin_1)*%
X103603910Y-129933600D03*
D11*
%TO.P,J46,2,Pin_2*%
%TO.N,Net-(J46-Pin_2)*%
X102353910Y-129933600D03*
%TD*%
D12*
%TO.P,J6,1,Pin_1*%
%TO.N,SPI2_SCK*%
X156845000Y-48260000D03*
D13*
%TO.P,J6,2,Pin_2*%
%TO.N,SPI2_NSS*%
X159385000Y-48260000D03*
%TO.P,J6,3,Pin_3*%
%TO.N,SPI2_MISO*%
X161925000Y-48260000D03*
%TO.P,J6,4,Pin_4*%
%TO.N,SPI2_MOSI*%
X164465000Y-48260000D03*
%TO.P,J6,5,Pin_5*%
%TO.N,GND*%
X167005000Y-48260000D03*
%TD*%
D10*
%TO.P,J53,1,Pin_1*%
%TO.N,Net-(J53-Pin_1)*%
X116711497Y-73138994D03*
D11*
%TO.P,J53,2,Pin_2*%
%TO.N,Net-(J53-Pin_2)*%
X115461497Y-73138994D03*
%TD*%
D10*
%TO.P,J45,1,Pin_1*%
%TO.N,Net-(J45-Pin_1)*%
X103064726Y-88409616D03*
D11*
%TO.P,J45,2,Pin_2*%
%TO.N,Net-(J45-Pin_2)*%
X101814726Y-88409616D03*
%TD*%
D10*
%TO.P,J42,1,Pin_1*%
%TO.N,Net-(J42-Pin_1)*%
X75236852Y-102713200D03*
D11*
%TO.P,J42,2,Pin_2*%
%TO.N,Net-(J42-Pin_2)*%
X73986852Y-102713200D03*
%TD*%
D10*
%TO.P,J51,1,Pin_1*%
%TO.N,Net-(J51-Pin_1)*%
X117513910Y-129933600D03*
D11*
%TO.P,J51,2,Pin_2*%
%TO.N,Net-(J51-Pin_2)*%
X116263910Y-129933600D03*
%TD*%
D10*
%TO.P,J39,1,Pin_1*%
%TO.N,Net-(J39-Pin_1)*%
X75070863Y-116493589D03*
D11*
%TO.P,J39,2,Pin_2*%
%TO.N,Net-(J39-Pin_2)*%
X73820863Y-116493589D03*
%TD*%
D14*
%TO.P,H1,1,1*%
%TO.N,GND*%
X68580000Y-49530000D03*
%TD*%
D17*
%TO.P,J1,1*%
%TO.N,+12V*%
X166497000Y-130952000D03*
D18*
%TO.P,J1,2*%
%TO.N,GND*%
X172797000Y-130952000D03*
D19*
%TO.P,J1,3*%
%TO.N,unconnected-(J1-Pad3)*%
X169397000Y-126152000D03*
%TD*%
D12*
%TO.P,J4,1,Pin_1*%
%TO.N,/MCU/CAP_SENSOR_OUT_2*%
X175875000Y-88544400D03*
D13*
%TO.P,J4,2,Pin_2*%
%TO.N,/MCU/CAP_SENSOR_RET_2*%
X175875000Y-91084400D03*
%TD*%
D10*
%TO.P,J57,1,Pin_1*%
%TO.N,Net-(J57-Pin_1)*%
X102801497Y-73138994D03*
D11*
%TO.P,J57,2,Pin_2*%
%TO.N,Net-(J57-Pin_2)*%
X101551497Y-73138994D03*
%TD*%
D10*
%TO.P,J36,1,Pin_1*%
%TO.N,Net-(J36-Pin_1)*%
X103576888Y-143912000D03*
D11*
%TO.P,J36,2,Pin_2*%
%TO.N,Net-(J36-Pin_2)*%
X102326888Y-143912000D03*
%TD*%
D10*
%TO.P,J59,1,Pin_1*%
%TO.N,Net-(J59-Pin_1)*%
X125104926Y-58182600D03*
D11*
%TO.P,J59,2,Pin_2*%
%TO.N,Net-(J59-Pin_2)*%
X123854926Y-58182600D03*
%TD*%
D14*
%TO.P,H3,1,1*%
%TO.N,GND*%
X176530000Y-49530000D03*
%TD*%
D10*
%TO.P,J55,1,Pin_1*%
%TO.N,Net-(J55-Pin_1)*%
X74981497Y-73138994D03*
D11*
%TO.P,J55,2,Pin_2*%
%TO.N,Net-(J55-Pin_2)*%
X73731497Y-73138994D03*
%TD*%
D10*
%TO.P,J49,1,Pin_1*%
%TO.N,Net-(J49-Pin_1)*%
X116966852Y-102713200D03*
D11*
%TO.P,J49,2,Pin_2*%
%TO.N,Net-(J49-Pin_2)*%
X115716852Y-102713200D03*
%TD*%
D20*
%TO.P,J2,1,Pin_1*%
%TO.N,+12V*%
X174853800Y-119562800D03*
D21*
%TO.P,J2,2,Pin_2*%
%TO.N,GND*%
X174853800Y-114482800D03*
%TD*%
D10*
%TO.P,J47,1,Pin_1*%
%TO.N,Net-(J47-Pin_1)*%
X117361863Y-143989555D03*
D11*
%TO.P,J47,2,Pin_2*%
%TO.N,Net-(J47-Pin_2)*%
X116111863Y-143989555D03*
%TD*%
D22*
%TO.N,GND*%
X161239200Y-97078800D03*
X167335200Y-121742200D03*
%TO.N,Net-(U2-VSENSE)*%
X138887200Y-128981200D03*
%TO.N,GND*%
X165836600Y-141605000D03*
X167182800Y-141605000D03*
X166243000Y-139166600D03*
X165836600Y-140385800D03*
X167259000Y-139319000D03*
X165354000Y-138811000D03*
X92913200Y-136448800D03*
X84578789Y-101900400D03*
X99035847Y-129120800D03*
X167213600Y-97023233D03*
X120401938Y-141068555D03*
X127787400Y-124282200D03*
X91953938Y-113572589D03*
X157657800Y-143075400D03*
X80162400Y-65913000D03*
X70676663Y-87596816D03*
X87153337Y-52181974D03*
X105923938Y-70217994D03*
X114696600Y-109914989D03*
X115468400Y-50927000D03*
X158775400Y-143075400D03*
X92760800Y-122834400D03*
X149555200Y-123850400D03*
X102615226Y-71361038D03*
X138474800Y-110972600D03*
X153695400Y-143075400D03*
X150139400Y-143024600D03*
X137503000Y-113665000D03*
X73132589Y-96134600D03*
X138074400Y-145209000D03*
X74795226Y-71361038D03*
X70668789Y-101900400D03*
X92207938Y-99792200D03*
X159454600Y-114249200D03*
X135509000Y-121945400D03*
X72877234Y-66560394D03*
X78384400Y-94386400D03*
X131826000Y-138147800D03*
X143891000Y-56032400D03*
X142697200Y-64922400D03*
X115409647Y-123355000D03*
X88705226Y-71361038D03*
X108407200Y-65913000D03*
X164592000Y-81686400D03*
X89565792Y-141880044D03*
X121961412Y-96744200D03*
X131800600Y-140484600D03*
X84586663Y-87596816D03*
X144370800Y-134366000D03*
X101472625Y-137333400D03*
X112232800Y-115680789D03*
X98322800Y-115680789D03*
X114862589Y-96134600D03*
X135503000Y-113665000D03*
X145745200Y-118389400D03*
X141401800Y-84455000D03*
X92715938Y-127012600D03*
X127228600Y-97155000D03*
X148869400Y-141805400D03*
X147726400Y-56007000D03*
X125958600Y-111752600D03*
X103390617Y-142134044D03*
X124918655Y-56404644D03*
X80035401Y-110511000D03*
X102870581Y-100935244D03*
X107543600Y-121940200D03*
X106195018Y-81518932D03*
X158454600Y-114249200D03*
X152095200Y-123977400D03*
X77647800Y-57312774D03*
X114870463Y-81831016D03*
X70692411Y-129230800D03*
X121158000Y-81534000D03*
X120147938Y-85488616D03*
X149199600Y-54965600D03*
X136169400Y-74752200D03*
X89507639Y-128155644D03*
X156159200Y-123977400D03*
X93319225Y-51629400D03*
X159263400Y-96464433D03*
X138503000Y-113665000D03*
X84412800Y-115680789D03*
X100786600Y-109914989D03*
X109860392Y-56404644D03*
X165557200Y-121691400D03*
X138303000Y-76377800D03*
X147447000Y-141957800D03*
X94782567Y-137666645D03*
X106685938Y-140991000D03*
X137474800Y-110972600D03*
X73140463Y-81831016D03*
X116614592Y-114715633D03*
X107754967Y-67178600D03*
X98557938Y-55270400D03*
X153619200Y-123977400D03*
X93929200Y-65989200D03*
X87299800Y-50749200D03*
X116788455Y-86631660D03*
X87050463Y-81831016D03*
X100697234Y-66560394D03*
X117327639Y-128155644D03*
X78282800Y-109270800D03*
X107956812Y-96744200D03*
X131191000Y-51257200D03*
X99008825Y-143099200D03*
X94003012Y-96744200D03*
X157454600Y-114249200D03*
X93750367Y-67178600D03*
X97612200Y-52552600D03*
X121683367Y-67178600D03*
X164292600Y-90470033D03*
X85125847Y-129120800D03*
X121374738Y-137160000D03*
X98233434Y-72326194D03*
X80023812Y-96744200D03*
X88960581Y-100935244D03*
X146405600Y-56032400D03*
X70413434Y-72326194D03*
X174218600Y-74320400D03*
X120655938Y-127000000D03*
X78237938Y-99792200D03*
X132740400Y-73583800D03*
X100952589Y-96134600D03*
X88794592Y-114715633D03*
X101499647Y-123355000D03*
X136474800Y-110972600D03*
X105963112Y-109651800D03*
X121441601Y-110511000D03*
X84323434Y-72326194D03*
X85349937Y-55204574D03*
X117175592Y-142211599D03*
X135991600Y-76047600D03*
X120437500Y-136398000D03*
X145669000Y-142694400D03*
X112945847Y-129120800D03*
X92125800Y-81610200D03*
X152577800Y-143075400D03*
X114607234Y-66560394D03*
X106177938Y-85488616D03*
X105478600Y-57369800D03*
X157426400Y-111556800D03*
X131826000Y-142821400D03*
X120536863Y-57369800D03*
X80324100Y-81432400D03*
X112143434Y-72326194D03*
X102878455Y-86631660D03*
X79796567Y-67153200D03*
X100960463Y-81831016D03*
X107942400Y-51604000D03*
X92329000Y-109296200D03*
X80191738Y-83340784D03*
X135474800Y-110972600D03*
X104749600Y-97053400D03*
X98488789Y-101900400D03*
X159426400Y-111556800D03*
X70502800Y-115680789D03*
X149555200Y-122707400D03*
X154889200Y-123977400D03*
X100350176Y-52222400D03*
X112406663Y-87596816D03*
X94522754Y-123973000D03*
X78388338Y-86385400D03*
X92278200Y-95656400D03*
X86787234Y-66560394D03*
X108505792Y-137945582D03*
X136503000Y-113665000D03*
X92207938Y-85488616D03*
X148869400Y-142669000D03*
X80111600Y-51546974D03*
X116525226Y-71361038D03*
X75050581Y-100935244D03*
X123000663Y-51604000D03*
X166446200Y-79222600D03*
X157810200Y-68580000D03*
X102704592Y-114715633D03*
X140335000Y-129842000D03*
X115257600Y-137410955D03*
X119639938Y-113572589D03*
X158673800Y-68834000D03*
X80076390Y-124074600D03*
X78486000Y-122834400D03*
X157429200Y-123977400D03*
X136347200Y-77165200D03*
X158426400Y-111556800D03*
X135153400Y-100253800D03*
X95237217Y-56430044D03*
X150825200Y-123977400D03*
X142722600Y-63830200D03*
X130096200Y-52324000D03*
X98496663Y-87596816D03*
X153314400Y-84455000D03*
X85184000Y-142845200D03*
X90855425Y-57395200D03*
X91953938Y-70217994D03*
X88968455Y-86631660D03*
X87042589Y-96134600D03*
X145161000Y-56032400D03*
X112793800Y-143176755D03*
X87589647Y-123355000D03*
X92969938Y-140716000D03*
X165938200Y-122732800D03*
X75058455Y-86631660D03*
X93995138Y-82469400D03*
X133121400Y-72212200D03*
X93762601Y-110511000D03*
X160454600Y-114249200D03*
X119893938Y-70217994D03*
X117373400Y-80534100D03*
X86876600Y-109914989D03*
X107999738Y-82469400D03*
X114835400Y-52213600D03*
X87647800Y-137079400D03*
X146910800Y-137160000D03*
X105923938Y-113572589D03*
X168198800Y-74345800D03*
X155168600Y-143075400D03*
X137342944Y-72063100D03*
X107741801Y-110511000D03*
X77983938Y-70217994D03*
X122072400Y-66040000D03*
X78235938Y-113572589D03*
X151384000Y-136471400D03*
X156286200Y-143075400D03*
X141427200Y-77292200D03*
X120147938Y-99792200D03*
X138404600Y-135277600D03*
X75074203Y-128265644D03*
X73156211Y-123465000D03*
X106431938Y-127000000D03*
X72966600Y-109914989D03*
X160426400Y-111556800D03*
X78237938Y-127122600D03*
X74884592Y-114715633D03*
X112398789Y-101900400D03*
X82029592Y-56347618D03*
X116780581Y-100935244D03*
X151257000Y-143024600D03*
X106680000Y-136880600D03*
X123155300Y-124002800D03*
X144414204Y-135582072D03*
X113035937Y-55261600D03*
X103417639Y-128155644D03*
X148742400Y-54406800D03*
X106177938Y-99792200D03*
X129057400Y-55575200D03*
%TO.N,REF*%
X104902000Y-60892600D03*
X77513791Y-84094127D03*
X118865416Y-111982629D03*
X128955800Y-95377000D03*
X105826985Y-139570996D03*
X84582000Y-60960000D03*
X77548110Y-98461843D03*
X105413612Y-98550434D03*
X105455760Y-125322679D03*
X97800980Y-54098142D03*
X92012088Y-125693553D03*
X112268000Y-60892600D03*
X77552552Y-125760828D03*
X77339951Y-112177572D03*
X119278539Y-98461951D03*
X119183548Y-84020513D03*
X91186000Y-60892600D03*
X119888000Y-125730000D03*
X97790000Y-60892600D03*
X77470000Y-60960000D03*
X119644551Y-139692769D03*
X92048322Y-139381682D03*
X127477152Y-53714494D03*
X91273075Y-112211024D03*
X118872000Y-60892600D03*
X91488663Y-98518701D03*
X84582000Y-53848000D03*
X105201695Y-112240895D03*
X91440000Y-84074000D03*
X105433850Y-84278196D03*
X105000259Y-68739265D03*
X118941928Y-68774109D03*
X91186000Y-68834000D03*
X112288440Y-53831263D03*
X127440600Y-60892600D03*
X77293447Y-68888776D03*
X119183548Y-95357300D03*
X128955800Y-99060000D03*
%TO.N,+1V8*%
X126238000Y-139446000D03*
X123698000Y-134366000D03*
X106146600Y-94945200D03*
X87906063Y-71337749D03*
X78409800Y-95529400D03*
X115726063Y-71337749D03*
X78511400Y-121793000D03*
X103492589Y-96083800D03*
X125540663Y-51553200D03*
X123698000Y-147066000D03*
X101905429Y-114692344D03*
X123698000Y-141986000D03*
X115981418Y-100911955D03*
X116376429Y-142188310D03*
X120437500Y-135356600D03*
X90187800Y-137028600D03*
X88766629Y-141856755D03*
X82651600Y-51496174D03*
X117410463Y-81780216D03*
X94438054Y-56406755D03*
X123698000Y-144526000D03*
X102591454Y-142110755D03*
X127508000Y-122478800D03*
X92887800Y-121666000D03*
X90129647Y-123304200D03*
X95859225Y-51578600D03*
X76504800Y-80534100D03*
X88169292Y-86608371D03*
X127254000Y-96062800D03*
X103555800Y-65786000D03*
X74259292Y-86608371D03*
X102079292Y-86608371D03*
X106680000Y-135839200D03*
X117797600Y-137360155D03*
X75672589Y-96083800D03*
X75680463Y-81780216D03*
X74275040Y-128242355D03*
X92938600Y-135331200D03*
X110693200Y-50774600D03*
X74085429Y-114692344D03*
X123698000Y-136906000D03*
X88161418Y-100911955D03*
X126238000Y-134366000D03*
X89590463Y-81780216D03*
X92202000Y-80594200D03*
X102071418Y-100911955D03*
X117236600Y-109864189D03*
X106248200Y-80721200D03*
X117147234Y-66509594D03*
X81230429Y-56324329D03*
X89582589Y-96083800D03*
X101816063Y-71337749D03*
X126238000Y-136906000D03*
X98501200Y-50673000D03*
X116528476Y-128132355D03*
X75417234Y-66509594D03*
X74251418Y-100911955D03*
X75506600Y-109864189D03*
X126238000Y-147066000D03*
X126238000Y-144526000D03*
X104012625Y-137282600D03*
X126238000Y-141986000D03*
X89327234Y-66509594D03*
X124119492Y-56381355D03*
X88708476Y-128132355D03*
X78333600Y-108153200D03*
X75696211Y-123414200D03*
X109061229Y-56381355D03*
X92278200Y-94615000D03*
X115815429Y-114692344D03*
X104039647Y-123304200D03*
X87995429Y-114692344D03*
X117949647Y-123304200D03*
X103500463Y-81780216D03*
X92430600Y-108229400D03*
X115989292Y-86608371D03*
X105963112Y-108559600D03*
X117402589Y-96083800D03*
X110482400Y-51553200D03*
X127279400Y-109822200D03*
X89416600Y-109864189D03*
X102618476Y-128132355D03*
X123698000Y-139446000D03*
X73996063Y-71337749D03*
X127406400Y-52501800D03*
X103237234Y-66509594D03*
X103326600Y-109864189D03*
%TO.N,+3.3V*%
X142265400Y-84455000D03*
X148936200Y-112877600D03*
X149936200Y-112877600D03*
X143690600Y-110972600D03*
X145936200Y-112877600D03*
X154092400Y-111556800D03*
X162692400Y-94559433D03*
X157835600Y-67614800D03*
X151092400Y-111556800D03*
X140106400Y-64922400D03*
X146936200Y-112877600D03*
X140335000Y-112344200D03*
X136499600Y-70789800D03*
X141690600Y-110972600D03*
X140690600Y-110972600D03*
X134355600Y-96397000D03*
X153092400Y-111556800D03*
X132232400Y-76936600D03*
X155092400Y-111556800D03*
X174193200Y-84404200D03*
X163068000Y-78003400D03*
X148615400Y-59385200D03*
X140157200Y-63804800D03*
X149174200Y-57759600D03*
X163149600Y-90444633D03*
X135559800Y-119151400D03*
X154279600Y-84455000D03*
X136525000Y-72872600D03*
X152092400Y-111556800D03*
X142690600Y-110972600D03*
X147701000Y-57886600D03*
X147936200Y-112877600D03*
X168198800Y-84378800D03*
X141274800Y-73304400D03*
X144690600Y-110972600D03*
%TO.N,/MCU/NRST*%
X168529000Y-78181200D03*
X168478200Y-82372200D03*
X178739800Y-78206600D03*
X154457400Y-82296000D03*
X152476200Y-74736100D03*
%TO.N,DEBUG_JTCK-SWCLK*%
X173736000Y-64439800D03*
X173736000Y-61010800D03*
%TO.N,DEBUG_JTMS-SWDIO*%
X156895800Y-69732300D03*
X170332400Y-73152000D03*
X170332400Y-66065400D03*
X156895800Y-73152000D03*
%TO.N,DEBUG_JTDO-SWO*%
X172339000Y-99466400D03*
X146516500Y-68605400D03*
X145752500Y-99491800D03*
X172389800Y-71094600D03*
%TO.N,SPI2_SCK*%
X156870400Y-65760600D03*
X149421400Y-68681600D03*
X152739500Y-68097400D03*
X152739500Y-71297800D03*
X149421400Y-71323200D03*
%TO.N,SPI2_NSS*%
X146481800Y-60960000D03*
X159410400Y-60807600D03*
X146516500Y-64719200D03*
%TO.N,SPI2_MISO*%
X164249100Y-79273400D03*
%TO.N,SPI2_MOSI*%
X151861774Y-75858116D03*
X164798600Y-53111400D03*
X151155400Y-53136800D03*
%TO.N,UART4_RX*%
X146888200Y-51079400D03*
X152121825Y-64467133D03*
X152120600Y-51358800D03*
%TO.N,UART4_TX*%
X152674300Y-65278000D03*
%TO.N,Net-(J35-Pin_1)*%
X107028000Y-54296400D03*
X111669864Y-54337788D03*
%TO.N,Net-(J13-Pin_1)*%
X79197200Y-54239374D03*
X83839064Y-54280762D03*
%TO.N,Net-(U2-EN)*%
X143289900Y-138503400D03*
X152908000Y-136090400D03*
%TO.N,Net-(U2-VSENSE)*%
X147701000Y-137614400D03*
%TO.N,ADC1_INP4*%
X144653000Y-91313000D03*
X144627600Y-83286600D03*
%TO.N,ADC1_INP5*%
X146126200Y-83286600D03*
X146100800Y-89331800D03*
%TO.N,Net-(U5-SENSEA)*%
X83083400Y-55483974D03*
X79883000Y-55636374D03*
%TO.N,Net-(U12-SENSEA)*%
X107713800Y-55693400D03*
X110914200Y-55541000D03*
%TO.N,/MCU/BOOT0*%
X167716200Y-63271400D03*
X167640000Y-79756000D03*
%TO.N,I2C4_SDA*%
X143441338Y-65214740D03*
X143794544Y-60980256D03*
%TO.N,I2C4_SCL*%
X145161000Y-60858400D03*
X145237200Y-64922400D03*
%TO.N,TIM1_CH3_PHASE*%
X83896200Y-107061000D03*
X123748800Y-106758116D03*
X123748800Y-68217100D03*
X83870800Y-111607600D03*
%TO.N,TIM1_CH4_PHASE*%
X83007200Y-97866200D03*
X122021600Y-92347100D03*
X122021600Y-68808600D03*
X83007200Y-92481400D03*
%TO.N,TIM2_CH1_PHASE*%
X112471200Y-75133200D03*
X130632200Y-69316600D03*
X112475227Y-83544627D03*
X130606800Y-75107800D03*
%TO.N,TIM15_CH1*%
X98856800Y-63500000D03*
X98882200Y-68823505D03*
X135915400Y-69773800D03*
X135915400Y-63500000D03*
%TO.N,TIM15_CH2*%
X110718600Y-125628400D03*
X110655697Y-122580400D03*
X123164600Y-70358000D03*
X123520200Y-121940700D03*
%TO.N,TIM4_CH4_PHASE*%
X113868200Y-138998100D03*
X113919000Y-133883400D03*
X138734800Y-101041200D03*
X141224000Y-71272400D03*
X122605800Y-133934200D03*
X122605800Y-101650800D03*
%TO.N,TIM5_CH2_PHASE*%
X69316600Y-74930000D03*
X129184400Y-74574400D03*
X69316600Y-83540600D03*
X129159000Y-71628000D03*
%TO.N,TIM5_CH3_PHASE*%
X97053400Y-111633000D03*
X137261600Y-107899200D03*
X97028000Y-108483400D03*
X138353800Y-71899300D03*
%TO.N,TIM2_CH1*%
X113207800Y-84094127D03*
X113207800Y-78723900D03*
%TO.N,TIM5_CH2*%
X70612000Y-79984600D03*
X70535800Y-84124800D03*
%TO.N,TIM5_CH3*%
X137811100Y-79844500D03*
X98806000Y-112178100D03*
X98831400Y-107393200D03*
X137811100Y-107307616D03*
%TO.N,TIM13_CH1*%
X131191000Y-64109600D03*
X131216400Y-80721200D03*
X84988400Y-68823505D03*
X84963000Y-64109600D03*
%TO.N,TIM14_CH1*%
X91236800Y-48183800D03*
X91230579Y-53802880D03*
X145161000Y-48209200D03*
X145796000Y-78409800D03*
X144061500Y-78409800D03*
X144094200Y-80670400D03*
%TO.N,TIM8_CH4_PHASE*%
X69672200Y-68275200D03*
X129794000Y-64659100D03*
X129813720Y-86213821D03*
X69646800Y-64389000D03*
X147142200Y-83261200D03*
X147142200Y-86316500D03*
%TO.N,TIM12_CH2_PHASE*%
X111277400Y-94132400D03*
X111005411Y-97848211D03*
X147599400Y-94132400D03*
X147691700Y-84658200D03*
%TO.N,TIM1_CH1*%
X148444873Y-80658091D03*
X148539200Y-103251000D03*
X108585000Y-103886000D03*
X108381800Y-134645400D03*
X97256600Y-139496800D03*
X97205800Y-134721600D03*
%TO.N,TIM13_CH1_PHASE*%
X82778600Y-76352400D03*
X130352800Y-85623400D03*
X130378200Y-76454000D03*
X148615400Y-83312000D03*
X82727800Y-68275200D03*
X148615400Y-85766500D03*
%TO.N,TIM1_CH2*%
X149174200Y-84048600D03*
X97942400Y-92932900D03*
X97891600Y-98397711D03*
X149123400Y-92938600D03*
%TO.N,TIM14_CH1_PHASE*%
X149631400Y-79019400D03*
X149631400Y-80670400D03*
X91821000Y-53263800D03*
X144399000Y-48810500D03*
X91871800Y-48793400D03*
X144627600Y-78994000D03*
%TO.N,TIM1_CH3*%
X150368000Y-80238600D03*
X82854800Y-112141000D03*
X150063200Y-106248200D03*
X82854800Y-106654600D03*
%TO.N,TIM1_CH4*%
X81838800Y-92176600D03*
X81838800Y-98374200D03*
X150555100Y-84251800D03*
X150622000Y-91922600D03*
%TO.N,TIM15_CH1_PHASE*%
X132613400Y-79273400D03*
X151104600Y-83286600D03*
X132613400Y-85217000D03*
X96799400Y-79273400D03*
X96799400Y-68275200D03*
X151104600Y-85217000D03*
%TO.N,TIM4_CH1_PHASE*%
X97866200Y-83388200D03*
X97866200Y-78206600D03*
X151561800Y-87096600D03*
X129235200Y-78155800D03*
X129260600Y-86791800D03*
X151663400Y-80543400D03*
%TO.N,TIM4_CH2_PHASE*%
X99415600Y-122047000D03*
X155143200Y-81127600D03*
X129768600Y-88729500D03*
X155168600Y-88782300D03*
X129768600Y-121386600D03*
X99339400Y-125120400D03*
%TO.N,TIM12_CH2*%
X156997400Y-94767400D03*
X111887000Y-94681900D03*
X156997400Y-78841600D03*
X112039400Y-98397711D03*
%TO.N,HRTIM_CHC1_PHASE*%
X160680400Y-47269400D03*
X105765600Y-53314600D03*
X160629600Y-78282800D03*
X105765600Y-47498000D03*
%TO.N,HRTIM_CHC2_PHASE*%
X140258800Y-84607400D03*
X141427200Y-78130400D03*
X127685800Y-76901900D03*
X127660400Y-84709000D03*
X84099400Y-76901900D03*
X84048600Y-83540600D03*
%TO.N,HRTIM_CHD1_PHASE*%
X68961000Y-120218200D03*
X68961000Y-125145800D03*
X161772600Y-77317600D03*
X161493200Y-101625400D03*
X129219100Y-101346000D03*
X129216802Y-119353722D03*
%TO.N,HRTIM_CHD2_PHASE*%
X157988000Y-90763500D03*
X157988000Y-76835000D03*
X68656200Y-91744800D03*
X68656200Y-97840800D03*
%TO.N,TIM4_CH1*%
X128422400Y-77597000D03*
X152501600Y-87630000D03*
X128422400Y-87553800D03*
X99085400Y-77597000D03*
X152527000Y-76301600D03*
X99009200Y-84094127D03*
%TO.N,LPTIM1_OUT*%
X130733800Y-95783400D03*
X158877000Y-75819000D03*
X83616800Y-125552200D03*
X157535900Y-95758000D03*
X83616800Y-120599200D03*
X130708400Y-119694100D03*
%TO.N,TIM4_CH3*%
X112573749Y-68823505D03*
X149987000Y-75285600D03*
X149970900Y-62340900D03*
X112648768Y-62340900D03*
%TO.N,TIM4_CH4*%
X155803600Y-107010200D03*
X156641800Y-74795000D03*
X125091153Y-132473533D03*
X113284000Y-139547600D03*
X113207800Y-132475100D03*
X125298200Y-106757616D03*
%TO.N,HRTIM_CHA1*%
X153314400Y-74295000D03*
X153289000Y-61544200D03*
X121056400Y-61442600D03*
X121031000Y-53867111D03*
%TO.N,HRTIM_CHA2*%
X68275200Y-112318800D03*
X68351400Y-105968800D03*
X165227000Y-73863200D03*
X165236300Y-105058918D03*
%TO.N,HRTIM_CHB1*%
X150520400Y-73279000D03*
X78105000Y-49352200D03*
X150520400Y-49352200D03*
X78105000Y-53670200D03*
%TO.N,TIM8_CH4*%
X128473200Y-65208600D03*
X146100800Y-50587500D03*
X128600200Y-50587500D03*
X147066000Y-72796400D03*
X70866000Y-68823505D03*
X70916800Y-65208600D03*
%TO.N,HRTIM_CHB2*%
X125831600Y-132775100D03*
X79781400Y-133197600D03*
X162915600Y-72263000D03*
X79806800Y-139192000D03*
X125780800Y-127584200D03*
X163626800Y-127609600D03*
%TO.N,HRTIM_CHC1*%
X153949400Y-46507400D03*
X153949400Y-71805800D03*
X105079800Y-46482000D03*
X105079800Y-53822600D03*
%TO.N,HRTIM_CHC2*%
X159639000Y-71297800D03*
X159639000Y-88188800D03*
X127254000Y-75768200D03*
X127127000Y-87858600D03*
X80899000Y-75844400D03*
X80873600Y-83972400D03*
%TO.N,HRTIM_CHD1*%
X162331400Y-102184200D03*
X132985100Y-102235000D03*
X68173600Y-125653800D03*
X162255200Y-70815200D03*
X68224400Y-119811800D03*
X132985100Y-118897400D03*
%TO.N,HRTIM_CHD2*%
X161229900Y-70281800D03*
X66979800Y-90474800D03*
X161076419Y-89926381D03*
X66954400Y-98425000D03*
%TO.N,TIM4_CH3_PHASE*%
X151575300Y-65278000D03*
X111963200Y-62890400D03*
X111937800Y-68275200D03*
X151572325Y-62890400D03*
%TO.N,TIM15_CH2_PHASE*%
X141759725Y-67916367D03*
X124409200Y-67564000D03*
X141808200Y-70586600D03*
X111455200Y-125069600D03*
X111455200Y-122580400D03*
X124282200Y-122428000D03*
%TO.N,TIM16_CH1_PHASE*%
X111379000Y-111582200D03*
X111404400Y-109042200D03*
X151069900Y-72034400D03*
X141935200Y-71983600D03*
X151069900Y-68148200D03*
X141757400Y-109042200D03*
%TO.N,LPTIM1_OUT_PHASE*%
X132486400Y-89331800D03*
X84455000Y-125069600D03*
X84455000Y-120954800D03*
X143179800Y-89306400D03*
X132435600Y-120243600D03*
X142962000Y-69773800D03*
%TO.N,HRTIM_CHA1_PHASE*%
X149123400Y-62001400D03*
X119986863Y-61998663D03*
X120142000Y-53289200D03*
X149148800Y-65303400D03*
%TO.N,HRTIM_CHA2_PHASE*%
X165811200Y-63804800D03*
X69088000Y-111633000D03*
X69113400Y-106349800D03*
X165785800Y-105664000D03*
%TO.N,HRTIM_CHB1_PHASE*%
X148183600Y-50038000D03*
X148056600Y-64465200D03*
X78663800Y-50063400D03*
X78663800Y-52908200D03*
%TO.N,HRTIM_CHB2_PHASE*%
X147624800Y-69224300D03*
X80619600Y-133324600D03*
X142630300Y-79933800D03*
X142544800Y-104848700D03*
X80619600Y-138760200D03*
X126669800Y-133324600D03*
X126695200Y-104848700D03*
X148056600Y-79959200D03*
%TO.N,TIM4_CH2*%
X98501200Y-125730000D03*
X131749800Y-66852800D03*
X131445000Y-120827800D03*
X141249300Y-68859400D03*
X140975300Y-66852800D03*
X98552000Y-121234200D03*
%TO.N,TIM16_CH1*%
X145186400Y-68224400D03*
X112445800Y-112178100D03*
X112445800Y-108492700D03*
X144221200Y-108483400D03*
%TO.N,TIM1_CH1_PHASE*%
X109347000Y-104241600D03*
X98120200Y-139039600D03*
X98120200Y-135204200D03*
X144061000Y-76344500D03*
X109347000Y-135204200D03*
X139369800Y-103860600D03*
X144061500Y-68199000D03*
X141436500Y-76352400D03*
%TO.N,TIM1_CH2_PHASE*%
X97104200Y-97840800D03*
X142697200Y-68046600D03*
X97104200Y-93599000D03*
X143662400Y-93446600D03*
%TO.N,Net-(J8-Pin_1)*%
X76883675Y-126198788D03*
X72241811Y-126157400D03*
%TO.N,Net-(J36-Pin_1)*%
X105200089Y-140067188D03*
X100558225Y-140025800D03*
%TO.N,Net-(U7-SENSEA)*%
X76128011Y-127402000D03*
X72927611Y-127554400D03*
%TO.N,Net-(U34-SENSEA)*%
X101244025Y-141422800D03*
X104444425Y-141270400D03*
%TO.N,Net-(J37-Pin_1)*%
X85962200Y-112607389D03*
X90604064Y-112648777D03*
%TO.N,Net-(J38-Pin_1)*%
X118597927Y-84564804D03*
X113956063Y-84523416D03*
%TO.N,Net-(J39-Pin_1)*%
X76694064Y-112648777D03*
X72052200Y-112607389D03*
%TO.N,Net-(J40-Pin_1)*%
X91375264Y-139813188D03*
X86733400Y-139771800D03*
%TO.N,Net-(J41-Pin_1)*%
X90777927Y-84564804D03*
X86136063Y-84523416D03*
%TO.N,Net-(J42-Pin_1)*%
X72218189Y-98827000D03*
X76860053Y-98868388D03*
%TO.N,Net-(J43-Pin_1)*%
X104680053Y-98868388D03*
X100038189Y-98827000D03*
%TO.N,Net-(J44-Pin_1)*%
X86128189Y-98827000D03*
X90770053Y-98868388D03*
%TO.N,Net-(J45-Pin_1)*%
X100046063Y-84523416D03*
X104687927Y-84564804D03*
%TO.N,Net-(J46-Pin_1)*%
X100585247Y-126047400D03*
X105227111Y-126088788D03*
%TO.N,Net-(J47-Pin_1)*%
X118985064Y-140144743D03*
X114343200Y-140103355D03*
%TO.N,Net-(J48-Pin_1)*%
X99872200Y-112607389D03*
X104514064Y-112648777D03*
%TO.N,Net-(J49-Pin_1)*%
X118590053Y-98868388D03*
X113948189Y-98827000D03*
%TO.N,Net-(J50-Pin_1)*%
X97046689Y-54363188D03*
X92404825Y-54321800D03*
%TO.N,Net-(J51-Pin_1)*%
X114495247Y-126047400D03*
X119137111Y-126088788D03*
%TO.N,Net-(J52-Pin_1)*%
X91317111Y-126088788D03*
X86675247Y-126047400D03*
%TO.N,Net-(J53-Pin_1)*%
X113692834Y-69252794D03*
X118334698Y-69294182D03*
%TO.N,Net-(J54-Pin_1)*%
X72226063Y-84523416D03*
X76867927Y-84564804D03*
%TO.N,Net-(J55-Pin_1)*%
X71962834Y-69252794D03*
X76604698Y-69294182D03*
%TO.N,Net-(J56-Pin_1)*%
X85872834Y-69252794D03*
X90514698Y-69294182D03*
%TO.N,Net-(J57-Pin_1)*%
X99782834Y-69252794D03*
X104424698Y-69294182D03*
%TO.N,Net-(J58-Pin_1)*%
X118424064Y-112648777D03*
X113782200Y-112607389D03*
%TO.N,Net-(U35-SENSEA)*%
X86648000Y-114004389D03*
X89848400Y-113851989D03*
%TO.N,Net-(U36-SENSEA)*%
X117842263Y-85768016D03*
X114641863Y-85920416D03*
%TO.N,Net-(U37-SENSEA)*%
X72738000Y-114004389D03*
X75938400Y-113851989D03*
%TO.N,Net-(U38-SENSEA)*%
X90619600Y-141016400D03*
X87419200Y-141168800D03*
%TO.N,Net-(U39-SENSEA)*%
X90022263Y-85768016D03*
X86821863Y-85920416D03*
%TO.N,Net-(U40-SENSEA)*%
X72903989Y-100224000D03*
X76104389Y-100071600D03*
%TO.N,Net-(U41-SENSEA)*%
X103924389Y-100071600D03*
X100723989Y-100224000D03*
%TO.N,Net-(U42-SENSEA)*%
X86813989Y-100224000D03*
X90014389Y-100071600D03*
%TO.N,Net-(U43-SENSEA)*%
X100731863Y-85920416D03*
X103932263Y-85768016D03*
%TO.N,Net-(U44-SENSEA)*%
X104471447Y-127292000D03*
X101271047Y-127444400D03*
%TO.N,Net-(U45-SENSEA)*%
X118229400Y-141347955D03*
X115029000Y-141500355D03*
%TO.N,Net-(U46-SENSEA)*%
X100558000Y-114004389D03*
X103758400Y-113851989D03*
%TO.N,Net-(U47-SENSEA)*%
X117834389Y-100071600D03*
X114633989Y-100224000D03*
%TO.N,Net-(U48-SENSEA)*%
X93090625Y-55718800D03*
X96291025Y-55566400D03*
%TO.N,Net-(U49-SENSEA)*%
X115181047Y-127444400D03*
X118381447Y-127292000D03*
%TO.N,Net-(U50-SENSEA)*%
X90561447Y-127292000D03*
X87361047Y-127444400D03*
%TO.N,Net-(U51-SENSEA)*%
X114378634Y-70649794D03*
X117579034Y-70497394D03*
%TO.N,Net-(U52-SENSEA)*%
X76112263Y-85768016D03*
X72911863Y-85920416D03*
%TO.N,Net-(U53-SENSEA)*%
X72648634Y-70649794D03*
X75849034Y-70497394D03*
%TO.N,Net-(U54-SENSEA)*%
X89759034Y-70497394D03*
X86558634Y-70649794D03*
%TO.N,Net-(U55-SENSEA)*%
X103669034Y-70497394D03*
X100468634Y-70649794D03*
%TO.N,Net-(U56-SENSEA)*%
X117668400Y-113851989D03*
X114468000Y-114004389D03*
%TO.N,Net-(J59-Pin_1)*%
X122086263Y-54296400D03*
X127000000Y-54356000D03*
%TO.N,Net-(U57-SENSEA)*%
X125972463Y-55541000D03*
X122772063Y-55693400D03*
%TO.N,/Drivers/TIM16_CH1/EN*%
X117932200Y-110947200D03*
X118160800Y-109651800D03*
%TD*%
D23*
%TO.N,Net-(U2-VSENSE)*%
X147701000Y-132534400D02*
X147701000Y-137614400D01*
X144147800Y-128981200D02*
X147701000Y-132534400D01*
X138887200Y-128981200D02*
X144147800Y-128981200D01*
%TO.N,REF*%
X105413612Y-112028978D02*
X105201695Y-112240895D01*
X118865416Y-111982629D02*
X118974064Y-112091277D01*
X77339951Y-125548227D02*
X77552552Y-125760828D01*
X77513791Y-84094127D02*
X77513791Y-98427524D01*
X119278539Y-111569506D02*
X118865416Y-111982629D01*
X118974064Y-112091277D02*
X118974064Y-124816064D01*
X105201695Y-125068614D02*
X105455760Y-125322679D01*
X105000259Y-83844605D02*
X105433850Y-84278196D01*
X119888000Y-139449320D02*
X119644551Y-139692769D01*
X77548110Y-98461843D02*
X77548110Y-111969413D01*
X92012088Y-125693553D02*
X92048322Y-125729787D01*
X91440000Y-98470038D02*
X91488663Y-98518701D01*
X91186000Y-68834000D02*
X91186000Y-60892600D01*
X119183548Y-69015729D02*
X119183548Y-84020513D01*
X112288440Y-60872160D02*
X112268000Y-60892600D01*
X128955800Y-95377000D02*
X128955800Y-99060000D01*
X118941928Y-68774109D02*
X118941928Y-60962528D01*
X118974064Y-124816064D02*
X119888000Y-125730000D01*
X119183548Y-95326200D02*
X119183548Y-98366960D01*
X77293447Y-68888776D02*
X77470000Y-68712223D01*
X77293447Y-83873783D02*
X77513791Y-84094127D01*
X77339951Y-112177572D02*
X77339951Y-125548227D01*
X118941928Y-60962528D02*
X118872000Y-60892600D01*
X91440000Y-84074000D02*
X91440000Y-98470038D01*
X105777111Y-125644030D02*
X105777111Y-139521122D01*
X92048322Y-125729787D02*
X92048322Y-139381682D01*
X91488663Y-98518701D02*
X91488663Y-111995436D01*
X105000259Y-68739265D02*
X105000259Y-60990859D01*
X105000259Y-60990859D02*
X104902000Y-60892600D01*
X84582000Y-53848000D02*
X84582000Y-60960000D01*
X127550000Y-53787342D02*
X127550000Y-60783200D01*
X77470000Y-68712223D02*
X77470000Y-60960000D01*
X105777111Y-139521122D02*
X105826985Y-139570996D01*
X91488663Y-111995436D02*
X91273075Y-112211024D01*
X118941928Y-68774109D02*
X119183548Y-69015729D01*
X119183548Y-95326200D02*
X119183548Y-95357300D01*
X105413612Y-98550434D02*
X105413612Y-112028978D01*
X105000259Y-68739265D02*
X105000259Y-83844605D01*
X97790000Y-54109122D02*
X97790000Y-60892600D01*
X77513791Y-98427524D02*
X77548110Y-98461843D01*
X91186000Y-83820000D02*
X91440000Y-84074000D01*
X112288440Y-53831263D02*
X112288440Y-60872160D01*
X127477152Y-53714494D02*
X127550000Y-53787342D01*
X119888000Y-125730000D02*
X119888000Y-139449320D01*
X105433850Y-98530196D02*
X105413612Y-98550434D01*
X119278539Y-98461951D02*
X119278539Y-111569506D01*
X91273075Y-124954540D02*
X92012088Y-125693553D01*
X119183548Y-84020513D02*
X119183548Y-95326200D01*
X105455760Y-125322679D02*
X105777111Y-125644030D01*
X105433850Y-84278196D02*
X105433850Y-98530196D01*
X105201695Y-112240895D02*
X105201695Y-125068614D01*
X77293447Y-68888776D02*
X77293447Y-83873783D01*
X91273075Y-112211024D02*
X91273075Y-124954540D01*
X127550000Y-60783200D02*
X127440600Y-60892600D01*
X97800980Y-54098142D02*
X97790000Y-54109122D01*
X119183548Y-98366960D02*
X119278539Y-98461951D01*
X77548110Y-111969413D02*
X77339951Y-112177572D01*
X91186000Y-68834000D02*
X91186000Y-83820000D01*
D24*
%TO.N,+3.3V*%
X135559800Y-118287800D02*
X135559800Y-119151400D01*
X140335000Y-112344200D02*
X140335000Y-113512600D01*
X140335000Y-113512600D02*
X135559800Y-118287800D01*
D23*
%TO.N,/MCU/NRST*%
X154457400Y-76546058D02*
X154457400Y-82296000D01*
X168478200Y-78232000D02*
X168529000Y-78181200D01*
X178739800Y-70154800D02*
X177165000Y-68580000D01*
X178739800Y-78206600D02*
X178739800Y-70154800D01*
X168478200Y-82372200D02*
X168478200Y-78232000D01*
X152476200Y-74736100D02*
X154457400Y-76546058D01*
%TO.N,DEBUG_JTCK-SWCLK*%
X173736000Y-64439800D02*
X173736000Y-61010800D01*
%TO.N,DEBUG_JTMS-SWDIO*%
X156895800Y-69732300D02*
X156895800Y-73152000D01*
X170332400Y-73152000D02*
X170332400Y-66065400D01*
%TO.N,DEBUG_JTDO-SWO*%
X146516500Y-68605400D02*
X146516500Y-82118482D01*
X172339000Y-71145400D02*
X172389800Y-71094600D01*
X145550800Y-99290100D02*
X145752500Y-99491800D01*
X145550800Y-83084182D02*
X145550800Y-99290100D01*
X146516500Y-82118482D02*
X145550800Y-83084182D01*
X172339000Y-99466400D02*
X172339000Y-71145400D01*
%TO.N,SPI2_SCK*%
X149421400Y-71323200D02*
X149421400Y-68681600D01*
X152739500Y-71297800D02*
X152739500Y-68097400D01*
X156845000Y-48260000D02*
X156845000Y-65735200D01*
X156845000Y-65735200D02*
X156870400Y-65760600D01*
%TO.N,SPI2_NSS*%
X146481800Y-60960000D02*
X146481800Y-64684500D01*
X159385000Y-60782200D02*
X159410400Y-60807600D01*
X159385000Y-48260000D02*
X159385000Y-60782200D01*
X146481800Y-64684500D02*
X146516500Y-64719200D01*
%TO.N,SPI2_MISO*%
X161925000Y-48260000D02*
X164249100Y-50584100D01*
X164249100Y-50584100D02*
X164249100Y-79273400D01*
%TO.N,SPI2_MOSI*%
X151022325Y-53269875D02*
X151155400Y-53136800D01*
X151022325Y-65502843D02*
X151022325Y-53269875D01*
X164798600Y-53111400D02*
X164798600Y-48593600D01*
X151861774Y-66342292D02*
X151022325Y-65502843D01*
X164798600Y-48593600D02*
X164465000Y-48260000D01*
X151861774Y-75858116D02*
X151861774Y-66342292D01*
%TO.N,UART4_RX*%
X152120600Y-61008350D02*
X152120600Y-51358800D01*
X146735800Y-50927000D02*
X146735800Y-48260000D01*
X152121825Y-64467133D02*
X152121825Y-61009575D01*
X152121825Y-61009575D02*
X152120600Y-61008350D01*
X146888200Y-51079400D02*
X146735800Y-50927000D01*
%TO.N,UART4_TX*%
X152674300Y-49118500D02*
X151815800Y-48260000D01*
X152674300Y-65278000D02*
X152674300Y-49118500D01*
D24*
%TO.N,Net-(J35-Pin_1)*%
X111628476Y-54296400D02*
X111669864Y-54337788D01*
X107028000Y-54296400D02*
X111628476Y-54296400D01*
X107028000Y-54296400D02*
X111628476Y-54296400D01*
X111628476Y-54296400D02*
X111669864Y-54337788D01*
%TO.N,Net-(J13-Pin_1)*%
X83797676Y-54239374D02*
X83839064Y-54280762D01*
X79197200Y-54239374D02*
X83797676Y-54239374D01*
%TO.N,Net-(U2-EN)*%
X152908000Y-136090400D02*
X150495000Y-138503400D01*
X150495000Y-138503400D02*
X143289900Y-138503400D01*
D23*
%TO.N,ADC1_INP4*%
X144627600Y-91287600D02*
X144653000Y-91313000D01*
X144627600Y-83286600D02*
X144627600Y-91287600D01*
%TO.N,ADC1_INP5*%
X146126200Y-89306400D02*
X146100800Y-89331800D01*
X146126200Y-83286600D02*
X146126200Y-89306400D01*
D24*
%TO.N,Net-(U5-SENSEA)*%
X83083400Y-55483974D02*
X80035400Y-55483974D01*
X80035400Y-55483974D02*
X79883000Y-55636374D01*
%TO.N,Net-(U12-SENSEA)*%
X110914200Y-55541000D02*
X107866200Y-55541000D01*
X107866200Y-55541000D02*
X107713800Y-55693400D01*
X110914200Y-55541000D02*
X107866200Y-55541000D01*
X107866200Y-55541000D02*
X107713800Y-55693400D01*
D23*
%TO.N,/MCU/BOOT0*%
X167648800Y-63338800D02*
X167716200Y-63271400D01*
X167640000Y-79756000D02*
X167648800Y-63338800D01*
%TO.N,I2C4_SDA*%
X143441338Y-61333462D02*
X143794544Y-60980256D01*
X143441338Y-65214740D02*
X143441338Y-61333462D01*
%TO.N,I2C4_SCL*%
X145161000Y-64846200D02*
X145237200Y-64922400D01*
X145161000Y-60858400D02*
X145161000Y-64846200D01*
%TO.N,TIM1_CH3_PHASE*%
X123748800Y-106758116D02*
X123748800Y-68217100D01*
X83870800Y-107086400D02*
X83896200Y-107061000D01*
X83870800Y-111607600D02*
X83870800Y-107086400D01*
%TO.N,TIM1_CH4_PHASE*%
X122021600Y-92347100D02*
X122021600Y-68808600D01*
X83007200Y-97866200D02*
X83007200Y-92481400D01*
%TO.N,TIM2_CH1_PHASE*%
X112475227Y-75137227D02*
X112471200Y-75133200D01*
X130606800Y-75107800D02*
X130606800Y-69342000D01*
X112475227Y-83544627D02*
X112475227Y-75137227D01*
X130606800Y-69342000D02*
X130632200Y-69316600D01*
%TO.N,TIM15_CH1*%
X98882200Y-68823505D02*
X98856800Y-68798105D01*
X98856800Y-68798105D02*
X98856800Y-63500000D01*
X135915400Y-63500000D02*
X135915400Y-69773800D01*
%TO.N,TIM15_CH2*%
X110718600Y-122643303D02*
X110655697Y-122580400D01*
X110718600Y-125628400D02*
X110718600Y-122643303D01*
X123198800Y-121619300D02*
X123198800Y-70392200D01*
X123520200Y-121940700D02*
X123198800Y-121619300D01*
X123198800Y-70392200D02*
X123164600Y-70358000D01*
%TO.N,TIM4_CH4_PHASE*%
X113919000Y-133883400D02*
X113919000Y-138947300D01*
X139598400Y-71272400D02*
X139598400Y-71432518D01*
X113919000Y-138947300D02*
X113868200Y-138998100D01*
X138861800Y-100914200D02*
X138734800Y-101041200D01*
X139598400Y-71432518D02*
X138861800Y-72169118D01*
X141224000Y-71272400D02*
X139598400Y-71272400D01*
X138861800Y-72169118D02*
X138861800Y-100914200D01*
X122605800Y-101650800D02*
X122605800Y-133934200D01*
%TO.N,TIM5_CH2_PHASE*%
X129184400Y-74574400D02*
X129184400Y-71653400D01*
X69316600Y-83540600D02*
X69316600Y-74930000D01*
X129184400Y-71653400D02*
X129159000Y-71628000D01*
%TO.N,TIM5_CH3_PHASE*%
X137261600Y-72948800D02*
X138311100Y-71899300D01*
X97053400Y-111633000D02*
X97053400Y-108508800D01*
X137261600Y-107899200D02*
X137261600Y-72948800D01*
X97053400Y-108508800D02*
X97028000Y-108483400D01*
X138311100Y-71899300D02*
X138353800Y-71899300D01*
%TO.N,TIM2_CH1*%
X113207800Y-84094127D02*
X113207800Y-78723900D01*
%TO.N,TIM5_CH2*%
X70535800Y-80060800D02*
X70612000Y-79984600D01*
X70535800Y-84124800D02*
X70535800Y-80060800D01*
%TO.N,TIM5_CH3*%
X137753000Y-107249516D02*
X137753000Y-79902600D01*
X137811100Y-107307616D02*
X137753000Y-107249516D01*
X98806000Y-107418600D02*
X98831400Y-107393200D01*
X98806000Y-112178100D02*
X98806000Y-107418600D01*
X137753000Y-79902600D02*
X137811100Y-79844500D01*
%TO.N,TIM13_CH1*%
X84988400Y-68823505D02*
X84988400Y-64135000D01*
X131191000Y-80695800D02*
X131216400Y-80721200D01*
X131191000Y-64109600D02*
X131191000Y-80695800D01*
X84988400Y-64135000D02*
X84963000Y-64109600D01*
%TO.N,TIM14_CH1*%
X145161000Y-55254582D02*
X145161000Y-48209200D01*
X144061500Y-78409800D02*
X144061500Y-80637700D01*
X144061500Y-80637700D02*
X144094200Y-80670400D01*
X145796000Y-78409800D02*
X145796000Y-55889582D01*
X91230579Y-48190021D02*
X91236800Y-48183800D01*
X145796000Y-55889582D02*
X145161000Y-55254582D01*
X91230579Y-53802880D02*
X91230579Y-48190021D01*
%TO.N,TIM8_CH4_PHASE*%
X129802800Y-86202901D02*
X129813720Y-86213821D01*
X69672200Y-64414400D02*
X69646800Y-64389000D01*
X147142200Y-86316500D02*
X147142200Y-83261200D01*
X129794000Y-64659100D02*
X129802800Y-64650300D01*
X69672200Y-68275200D02*
X69672200Y-64414400D01*
X129802800Y-64650300D02*
X129802800Y-86202901D01*
%TO.N,TIM12_CH2_PHASE*%
X147691700Y-87510018D02*
X147624800Y-87576918D01*
X147624800Y-94107000D02*
X147599400Y-94132400D01*
X147691700Y-84658200D02*
X147691700Y-87510018D01*
X111005411Y-97848211D02*
X111005411Y-94404389D01*
X147624800Y-87576918D02*
X147624800Y-94107000D01*
X111005411Y-94404389D02*
X111277400Y-94132400D01*
%TO.N,TIM1_CH1*%
X148065400Y-81037564D02*
X148065400Y-84235200D01*
X97205800Y-139446000D02*
X97256600Y-139496800D01*
X147991700Y-93711900D02*
X148539200Y-94259400D01*
X148241700Y-85362382D02*
X147991700Y-85612382D01*
X148065400Y-84235200D02*
X148241700Y-84411500D01*
X108585000Y-103886000D02*
X108585000Y-134442200D01*
X147991700Y-85612382D02*
X147991700Y-93711900D01*
X108585000Y-134442200D02*
X108381800Y-134645400D01*
X148241700Y-84411500D02*
X148241700Y-85362382D01*
X148539200Y-94259400D02*
X148539200Y-103251000D01*
X97205800Y-134721600D02*
X97205800Y-139446000D01*
X148444873Y-80658091D02*
X148065400Y-81037564D01*
%TO.N,TIM13_CH1_PHASE*%
X130378200Y-85598000D02*
X130352800Y-85623400D01*
X82727800Y-68275200D02*
X82727800Y-76301600D01*
X148615400Y-85766500D02*
X148615400Y-83312000D01*
X82727800Y-76301600D02*
X82778600Y-76352400D01*
X130378200Y-76454000D02*
X130378200Y-85598000D01*
%TO.N,TIM1_CH2*%
X97891600Y-98397711D02*
X97891600Y-92983700D01*
X149165400Y-84057400D02*
X149174200Y-84048600D01*
X149123400Y-92938600D02*
X149165400Y-92896600D01*
X97891600Y-92983700D02*
X97942400Y-92932900D01*
X149165400Y-92896600D02*
X149165400Y-84057400D01*
%TO.N,TIM14_CH1_PHASE*%
X91821000Y-53263800D02*
X91821000Y-48844200D01*
X144611000Y-49022500D02*
X144611000Y-78977400D01*
X149631400Y-79019400D02*
X149631400Y-80670400D01*
X144399000Y-48810500D02*
X144611000Y-49022500D01*
X144611000Y-78977400D02*
X144627600Y-78994000D01*
X91821000Y-48844200D02*
X91871800Y-48793400D01*
%TO.N,TIM1_CH3*%
X150368000Y-80711618D02*
X150368000Y-80238600D01*
X82854800Y-112141000D02*
X82854800Y-106654600D01*
X150005100Y-81074518D02*
X150368000Y-80711618D01*
X150005100Y-106190100D02*
X150005100Y-81074518D01*
X150063200Y-106248200D02*
X150005100Y-106190100D01*
%TO.N,TIM1_CH4*%
X150554600Y-91855200D02*
X150554600Y-84252300D01*
X150554600Y-84252300D02*
X150555100Y-84251800D01*
X150622000Y-91922600D02*
X150554600Y-91855200D01*
X81838800Y-98374200D02*
X81838800Y-92176600D01*
%TO.N,TIM15_CH1_PHASE*%
X151104600Y-85217000D02*
X151104600Y-83286600D01*
X96799400Y-68275200D02*
X96799400Y-79273400D01*
X132613400Y-79273400D02*
X132613400Y-85217000D01*
%TO.N,TIM4_CH1_PHASE*%
X129235200Y-86766400D02*
X129260600Y-86791800D01*
X97866200Y-83388200D02*
X97866200Y-78206600D01*
X151654600Y-80552200D02*
X151663400Y-80543400D01*
X151654600Y-87003800D02*
X151654600Y-80552200D01*
X129235200Y-78155800D02*
X129235200Y-86766400D01*
X151561800Y-87096600D02*
X151654600Y-87003800D01*
%TO.N,TIM4_CH2_PHASE*%
X129768600Y-121386600D02*
X129768600Y-88729500D01*
X99339400Y-125120400D02*
X99339400Y-122123200D01*
X155168600Y-88782300D02*
X155168600Y-81153000D01*
X99339400Y-122123200D02*
X99415600Y-122047000D01*
X155168600Y-81153000D02*
X155143200Y-81127600D01*
%TO.N,TIM12_CH2*%
X111856663Y-98214974D02*
X111856663Y-94712237D01*
X156997400Y-94767400D02*
X156997400Y-78841600D01*
X112039400Y-98397711D02*
X111856663Y-98214974D01*
X111856663Y-94712237D02*
X111887000Y-94681900D01*
%TO.N,HRTIM_CHC1_PHASE*%
X160680400Y-47269400D02*
X160680400Y-78232000D01*
X105765600Y-53002982D02*
X105765600Y-47498000D01*
X160680400Y-78232000D02*
X160629600Y-78282800D01*
X105765600Y-53314600D02*
X105765600Y-53002982D01*
%TO.N,HRTIM_CHC2_PHASE*%
X140258800Y-84607400D02*
X140258800Y-79298800D01*
X127685800Y-84683600D02*
X127660400Y-84709000D01*
X140258800Y-79298800D02*
X141427200Y-78130400D01*
X84048600Y-83540600D02*
X84048600Y-76952700D01*
X127685800Y-76901900D02*
X127685800Y-84683600D01*
X84048600Y-76952700D02*
X84099400Y-76901900D01*
%TO.N,HRTIM_CHD1_PHASE*%
X68961000Y-125145800D02*
X68961000Y-120218200D01*
X161772600Y-101346000D02*
X161772600Y-77317600D01*
X161493200Y-101625400D02*
X161772600Y-101346000D01*
X129219100Y-119351424D02*
X129219100Y-101346000D01*
X129216802Y-119353722D02*
X129219100Y-119351424D01*
%TO.N,HRTIM_CHD2_PHASE*%
X68656200Y-97840800D02*
X68656200Y-91744800D01*
X157988000Y-90763500D02*
X157988000Y-76835000D01*
%TO.N,TIM4_CH1*%
X152501600Y-76327000D02*
X152527000Y-76301600D01*
X99009200Y-77673200D02*
X99085400Y-77597000D01*
X152501600Y-87630000D02*
X152501600Y-76327000D01*
X128422400Y-77597000D02*
X128422400Y-87553800D01*
X99009200Y-84094127D02*
X99009200Y-77673200D01*
%TO.N,LPTIM1_OUT*%
X157535900Y-95758000D02*
X158877000Y-94416900D01*
X130708400Y-95808800D02*
X130733800Y-95783400D01*
X83616800Y-125552200D02*
X83616800Y-120599200D01*
X130708400Y-119694100D02*
X130708400Y-95808800D01*
X158877000Y-94416900D02*
X158877000Y-75819000D01*
%TO.N,TIM4_CH3*%
X149970900Y-75269500D02*
X149987000Y-75285600D01*
X112573749Y-68823505D02*
X112573749Y-62415919D01*
X112573749Y-62415919D02*
X112648768Y-62340900D01*
X149970900Y-62340900D02*
X149970900Y-75269500D01*
%TO.N,TIM4_CH4*%
X155770291Y-106976891D02*
X155803600Y-107010200D01*
X156641800Y-74795000D02*
X155770291Y-75666509D01*
X125230800Y-132333886D02*
X125091153Y-132473533D01*
X155770291Y-75666509D02*
X155770291Y-106976891D01*
X125298200Y-106757616D02*
X125230800Y-106825016D01*
X113207800Y-139471400D02*
X113284000Y-139547600D01*
X113207800Y-132475100D02*
X113207800Y-139471400D01*
X125230800Y-106825016D02*
X125230800Y-132333886D01*
%TO.N,HRTIM_CHA1*%
X153289000Y-74269600D02*
X153314400Y-74295000D01*
X121086863Y-61412137D02*
X121056400Y-61442600D01*
X121086863Y-53922974D02*
X121086863Y-61412137D01*
X153289000Y-61544200D02*
X153289000Y-74269600D01*
%TO.N,HRTIM_CHA2*%
X68275200Y-106045000D02*
X68351400Y-105968800D01*
X68275200Y-112318800D02*
X68275200Y-106045000D01*
X165236300Y-105058918D02*
X165236300Y-73872500D01*
X165236300Y-73872500D02*
X165227000Y-73863200D01*
%TO.N,HRTIM_CHB1*%
X78105000Y-53670200D02*
X78105000Y-49844382D01*
X78105000Y-49844382D02*
X78105000Y-49352200D01*
X150520400Y-49352200D02*
X150520400Y-73279000D01*
%TO.N,TIM8_CH4*%
X128473200Y-65208600D02*
X128473200Y-50714500D01*
X128473200Y-50714500D02*
X128600200Y-50587500D01*
X146100800Y-50587500D02*
X146100800Y-54949782D01*
X70866000Y-65259400D02*
X70916800Y-65208600D01*
X147066000Y-55914982D02*
X147066000Y-72796400D01*
X70866000Y-68823505D02*
X70866000Y-65259400D01*
X146100800Y-54949782D02*
X147066000Y-55914982D01*
%TO.N,HRTIM_CHB2*%
X125780800Y-127584200D02*
X125780800Y-132724300D01*
X79781400Y-139166600D02*
X79806800Y-139192000D01*
X163699600Y-73047000D02*
X163699600Y-127536800D01*
X79781400Y-133197600D02*
X79781400Y-139166600D01*
X162915600Y-72263000D02*
X163699600Y-73047000D01*
X163699600Y-127536800D02*
X163626800Y-127609600D01*
X125780800Y-132724300D02*
X125831600Y-132775100D01*
%TO.N,HRTIM_CHC1*%
X153949400Y-46507400D02*
X153949400Y-71805800D01*
X105079800Y-53822600D02*
X105079800Y-46482000D01*
%TO.N,HRTIM_CHC2*%
X127110400Y-75911800D02*
X127110400Y-87842000D01*
X127110400Y-87842000D02*
X127127000Y-87858600D01*
X127254000Y-75768200D02*
X127110400Y-75911800D01*
X159639000Y-88188800D02*
X159639000Y-71297800D01*
X80873600Y-83972400D02*
X80873600Y-75869800D01*
X80873600Y-75869800D02*
X80899000Y-75844400D01*
%TO.N,HRTIM_CHD1*%
X162142400Y-77725618D02*
X162331400Y-77536618D01*
X68173600Y-119862600D02*
X68224400Y-119811800D01*
X162331400Y-77536618D02*
X162331400Y-70891400D01*
X162331400Y-70891400D02*
X162255200Y-70815200D01*
X162142400Y-101995200D02*
X162142400Y-77725618D01*
X68173600Y-125653800D02*
X68173600Y-119862600D01*
X132985100Y-118897400D02*
X132985100Y-102235000D01*
X162331400Y-102184200D02*
X162142400Y-101995200D01*
%TO.N,HRTIM_CHD2*%
X66954400Y-90500200D02*
X66979800Y-90474800D01*
X161076419Y-89926381D02*
X161179600Y-89823200D01*
X161179600Y-89823200D02*
X161179600Y-70332100D01*
X161179600Y-70332100D02*
X161229900Y-70281800D01*
X66954400Y-98425000D02*
X66954400Y-90500200D01*
%TO.N,TIM4_CH3_PHASE*%
X151572325Y-62890400D02*
X151572325Y-65275025D01*
X151572325Y-65275025D02*
X151575300Y-65278000D01*
X111937800Y-68275200D02*
X111937800Y-62915800D01*
X111937800Y-62915800D02*
X111963200Y-62890400D01*
%TO.N,TIM15_CH2_PHASE*%
X124298800Y-67674400D02*
X124409200Y-67564000D01*
X111455200Y-125069600D02*
X111455200Y-122580400D01*
X141759725Y-67916367D02*
X141808200Y-67964842D01*
X141808200Y-67964842D02*
X141808200Y-70586600D01*
X124298800Y-122411400D02*
X124298800Y-67674400D01*
X124282200Y-122428000D02*
X124298800Y-122411400D01*
%TO.N,TIM16_CH1_PHASE*%
X141986000Y-78349418D02*
X141986000Y-72034400D01*
X141757400Y-109042200D02*
X140851800Y-108136600D01*
X111379000Y-109067600D02*
X111404400Y-109042200D01*
X141986000Y-72034400D02*
X141935200Y-71983600D01*
X111379000Y-111582200D02*
X111379000Y-109067600D01*
X140851800Y-108136600D02*
X140851800Y-79483618D01*
X140851800Y-79483618D02*
X141986000Y-78349418D01*
X151069900Y-72034400D02*
X151069900Y-68148200D01*
%TO.N,LPTIM1_OUT_PHASE*%
X132435600Y-89382600D02*
X132486400Y-89331800D01*
X143179800Y-89306400D02*
X143179800Y-70129400D01*
X143179800Y-70129400D02*
X143179800Y-69991600D01*
X143179800Y-69991600D02*
X142962000Y-69773800D01*
X132435600Y-120243600D02*
X132435600Y-89382600D01*
X84455000Y-125069600D02*
X84455000Y-120954800D01*
%TO.N,HRTIM_CHA1_PHASE*%
X149123400Y-65278000D02*
X149148800Y-65303400D01*
X119986863Y-53444337D02*
X119986863Y-61998663D01*
X149123400Y-62001400D02*
X149123400Y-65278000D01*
X120142000Y-53289200D02*
X119986863Y-53444337D01*
%TO.N,HRTIM_CHA2_PHASE*%
X69088000Y-111633000D02*
X69088000Y-106375200D01*
X69088000Y-106375200D02*
X69113400Y-106349800D01*
X165785800Y-105664000D02*
X165785800Y-63830200D01*
X165785800Y-63830200D02*
X165811200Y-63804800D01*
%TO.N,HRTIM_CHB1_PHASE*%
X148391591Y-54833809D02*
X148183600Y-54625818D01*
X148056600Y-64465200D02*
X148065400Y-63431100D01*
X148183600Y-54625818D02*
X148183600Y-50038000D01*
X148391591Y-57973827D02*
X148391591Y-54833809D01*
X148065400Y-63431100D02*
X148065400Y-58300018D01*
X148065400Y-58300018D02*
X148391591Y-57973827D01*
X78663800Y-50063400D02*
X78663800Y-52908200D01*
%TO.N,HRTIM_CHB2_PHASE*%
X148055223Y-79957823D02*
X148056600Y-79959200D01*
X126695200Y-133299200D02*
X126669800Y-133324600D01*
X142815400Y-80118900D02*
X142815400Y-88892982D01*
X80619600Y-133324600D02*
X80619600Y-138760200D01*
X147624800Y-69224300D02*
X148055223Y-69654723D01*
X126695200Y-104848700D02*
X126695200Y-133299200D01*
X142544800Y-89163582D02*
X142544800Y-104848700D01*
X142815400Y-88892982D02*
X142544800Y-89163582D01*
X142630300Y-79933800D02*
X142815400Y-80118900D01*
X148055223Y-69654723D02*
X148055223Y-79957823D01*
%TO.N,TIM4_CH2*%
X131766400Y-120506400D02*
X131766400Y-77248418D01*
X98501200Y-125730000D02*
X98501200Y-121285000D01*
X131766400Y-77248418D02*
X131682400Y-77164418D01*
X98501200Y-121285000D02*
X98552000Y-121234200D01*
X131682400Y-77164418D02*
X131682400Y-66920200D01*
X140975300Y-66852800D02*
X140975300Y-68585400D01*
X140975300Y-68585400D02*
X141249300Y-68859400D01*
X131682400Y-66920200D02*
X131749800Y-66852800D01*
X131445000Y-120827800D02*
X131766400Y-120506400D01*
%TO.N,TIM16_CH1*%
X145203000Y-107501600D02*
X144221200Y-108483400D01*
X145186400Y-68224400D02*
X145203000Y-68614200D01*
X145203000Y-68614200D02*
X145203000Y-107501600D01*
X112445800Y-112178100D02*
X112445800Y-108492700D01*
%TO.N,TIM1_CH1_PHASE*%
X98120200Y-135204200D02*
X98120200Y-139039600D01*
X109347000Y-122169200D02*
X109347000Y-135204200D01*
X144061500Y-76344000D02*
X144061000Y-76344500D01*
X144061500Y-68199000D02*
X144061500Y-76344000D01*
X140360400Y-76352400D02*
X139369800Y-77343000D01*
X139369800Y-77343000D02*
X139369800Y-103860600D01*
X109347000Y-104241600D02*
X109347000Y-122169200D01*
X141436500Y-76352400D02*
X140360400Y-76352400D01*
%TO.N,TIM1_CH2_PHASE*%
X143729800Y-93379200D02*
X143729800Y-81203800D01*
X143511500Y-69597500D02*
X143510000Y-69596000D01*
X143510000Y-69596000D02*
X142697200Y-68046600D01*
X143729800Y-81203800D02*
X143511500Y-80985500D01*
X143511500Y-80985500D02*
X143511500Y-69597500D01*
X97104200Y-97840800D02*
X97104200Y-93599000D01*
X143662400Y-93446600D02*
X143729800Y-93379200D01*
D24*
%TO.N,Net-(J8-Pin_1)*%
X72241811Y-126157400D02*
X76842287Y-126157400D01*
X76842287Y-126157400D02*
X76883675Y-126198788D01*
%TO.N,Net-(J36-Pin_1)*%
X105158701Y-140025800D02*
X105200089Y-140067188D01*
X100558225Y-140025800D02*
X105158701Y-140025800D01*
%TO.N,Net-(U7-SENSEA)*%
X76128011Y-127402000D02*
X73080011Y-127402000D01*
X73080011Y-127402000D02*
X72927611Y-127554400D01*
%TO.N,Net-(U34-SENSEA)*%
X104444425Y-141270400D02*
X101396425Y-141270400D01*
X101396425Y-141270400D02*
X101244025Y-141422800D01*
%TO.N,Net-(J37-Pin_1)*%
X85962200Y-112607389D02*
X90562676Y-112607389D01*
X90562676Y-112607389D02*
X90604064Y-112648777D01*
%TO.N,Net-(J38-Pin_1)*%
X113956063Y-84523416D02*
X118556539Y-84523416D01*
X118556539Y-84523416D02*
X118597927Y-84564804D01*
%TO.N,Net-(J39-Pin_1)*%
X72052200Y-112607389D02*
X76652676Y-112607389D01*
X76652676Y-112607389D02*
X76694064Y-112648777D01*
%TO.N,Net-(J40-Pin_1)*%
X86733400Y-139771800D02*
X91333876Y-139771800D01*
X91333876Y-139771800D02*
X91375264Y-139813188D01*
%TO.N,Net-(J41-Pin_1)*%
X86136063Y-84523416D02*
X90736539Y-84523416D01*
X90736539Y-84523416D02*
X90777927Y-84564804D01*
%TO.N,Net-(J42-Pin_1)*%
X76818665Y-98827000D02*
X76860053Y-98868388D01*
X72218189Y-98827000D02*
X76818665Y-98827000D01*
%TO.N,Net-(J43-Pin_1)*%
X100038189Y-98827000D02*
X104638665Y-98827000D01*
X104638665Y-98827000D02*
X104680053Y-98868388D01*
%TO.N,Net-(J44-Pin_1)*%
X86128189Y-98827000D02*
X90728665Y-98827000D01*
X90728665Y-98827000D02*
X90770053Y-98868388D01*
%TO.N,Net-(J45-Pin_1)*%
X100046063Y-84523416D02*
X104646539Y-84523416D01*
X104646539Y-84523416D02*
X104687927Y-84564804D01*
%TO.N,Net-(J46-Pin_1)*%
X105185723Y-126047400D02*
X105227111Y-126088788D01*
X100585247Y-126047400D02*
X105185723Y-126047400D01*
%TO.N,Net-(J47-Pin_1)*%
X118943676Y-140103355D02*
X118985064Y-140144743D01*
X114343200Y-140103355D02*
X118943676Y-140103355D01*
%TO.N,Net-(J48-Pin_1)*%
X104472676Y-112607389D02*
X104514064Y-112648777D01*
X99872200Y-112607389D02*
X104472676Y-112607389D01*
%TO.N,Net-(J49-Pin_1)*%
X118548665Y-98827000D02*
X118590053Y-98868388D01*
X113948189Y-98827000D02*
X118548665Y-98827000D01*
%TO.N,Net-(J50-Pin_1)*%
X97005301Y-54321800D02*
X97046689Y-54363188D01*
X92404825Y-54321800D02*
X97005301Y-54321800D01*
%TO.N,Net-(J51-Pin_1)*%
X114495247Y-126047400D02*
X119095723Y-126047400D01*
X119095723Y-126047400D02*
X119137111Y-126088788D01*
%TO.N,Net-(J52-Pin_1)*%
X86675247Y-126047400D02*
X91275723Y-126047400D01*
X91275723Y-126047400D02*
X91317111Y-126088788D01*
%TO.N,Net-(J53-Pin_1)*%
X113692834Y-69252794D02*
X118293310Y-69252794D01*
X118293310Y-69252794D02*
X118334698Y-69294182D01*
%TO.N,Net-(J54-Pin_1)*%
X76826539Y-84523416D02*
X76867927Y-84564804D01*
X72226063Y-84523416D02*
X76826539Y-84523416D01*
%TO.N,Net-(J55-Pin_1)*%
X76563310Y-69252794D02*
X76604698Y-69294182D01*
X71962834Y-69252794D02*
X76563310Y-69252794D01*
%TO.N,Net-(J56-Pin_1)*%
X90473310Y-69252794D02*
X90514698Y-69294182D01*
X85872834Y-69252794D02*
X90473310Y-69252794D01*
%TO.N,Net-(J57-Pin_1)*%
X99782834Y-69252794D02*
X104383310Y-69252794D01*
X104383310Y-69252794D02*
X104424698Y-69294182D01*
%TO.N,Net-(J58-Pin_1)*%
X113782200Y-112607389D02*
X118382676Y-112607389D01*
X118382676Y-112607389D02*
X118424064Y-112648777D01*
%TO.N,Net-(U35-SENSEA)*%
X89848400Y-113851989D02*
X86800400Y-113851989D01*
X86800400Y-113851989D02*
X86648000Y-114004389D01*
%TO.N,Net-(U36-SENSEA)*%
X114794263Y-85768016D02*
X114641863Y-85920416D01*
X117842263Y-85768016D02*
X114794263Y-85768016D01*
%TO.N,Net-(U37-SENSEA)*%
X72890400Y-113851989D02*
X72738000Y-114004389D01*
X75938400Y-113851989D02*
X72890400Y-113851989D01*
%TO.N,Net-(U38-SENSEA)*%
X90619600Y-141016400D02*
X87571600Y-141016400D01*
X87571600Y-141016400D02*
X87419200Y-141168800D01*
%TO.N,Net-(U39-SENSEA)*%
X86974263Y-85768016D02*
X86821863Y-85920416D01*
X90022263Y-85768016D02*
X86974263Y-85768016D01*
%TO.N,Net-(U40-SENSEA)*%
X76104389Y-100071600D02*
X73056389Y-100071600D01*
X73056389Y-100071600D02*
X72903989Y-100224000D01*
%TO.N,Net-(U41-SENSEA)*%
X100876389Y-100071600D02*
X100723989Y-100224000D01*
X103924389Y-100071600D02*
X100876389Y-100071600D01*
%TO.N,Net-(U42-SENSEA)*%
X86966389Y-100071600D02*
X86813989Y-100224000D01*
X90014389Y-100071600D02*
X86966389Y-100071600D01*
%TO.N,Net-(U43-SENSEA)*%
X103932263Y-85768016D02*
X100884263Y-85768016D01*
X100884263Y-85768016D02*
X100731863Y-85920416D01*
%TO.N,Net-(U44-SENSEA)*%
X104471447Y-127292000D02*
X101423447Y-127292000D01*
X101423447Y-127292000D02*
X101271047Y-127444400D01*
%TO.N,Net-(U45-SENSEA)*%
X118229400Y-141347955D02*
X115181400Y-141347955D01*
X115181400Y-141347955D02*
X115029000Y-141500355D01*
%TO.N,Net-(U46-SENSEA)*%
X103758400Y-113851989D02*
X100710400Y-113851989D01*
X100710400Y-113851989D02*
X100558000Y-114004389D01*
%TO.N,Net-(U47-SENSEA)*%
X117834389Y-100071600D02*
X114786389Y-100071600D01*
X114786389Y-100071600D02*
X114633989Y-100224000D01*
%TO.N,Net-(U48-SENSEA)*%
X93243025Y-55566400D02*
X93090625Y-55718800D01*
X96291025Y-55566400D02*
X93243025Y-55566400D01*
%TO.N,Net-(U49-SENSEA)*%
X115333447Y-127292000D02*
X115181047Y-127444400D01*
X118381447Y-127292000D02*
X115333447Y-127292000D01*
%TO.N,Net-(U50-SENSEA)*%
X90561447Y-127292000D02*
X87513447Y-127292000D01*
X87513447Y-127292000D02*
X87361047Y-127444400D01*
%TO.N,Net-(U51-SENSEA)*%
X114531034Y-70497394D02*
X114378634Y-70649794D01*
X117579034Y-70497394D02*
X114531034Y-70497394D01*
%TO.N,Net-(U52-SENSEA)*%
X76112263Y-85768016D02*
X73064263Y-85768016D01*
X73064263Y-85768016D02*
X72911863Y-85920416D01*
%TO.N,Net-(U53-SENSEA)*%
X72801034Y-70497394D02*
X72648634Y-70649794D01*
X75849034Y-70497394D02*
X72801034Y-70497394D01*
%TO.N,Net-(U54-SENSEA)*%
X89759034Y-70497394D02*
X86711034Y-70497394D01*
X86711034Y-70497394D02*
X86558634Y-70649794D01*
%TO.N,Net-(U55-SENSEA)*%
X100621034Y-70497394D02*
X100468634Y-70649794D01*
X103669034Y-70497394D02*
X100621034Y-70497394D01*
%TO.N,Net-(U56-SENSEA)*%
X114620400Y-113851989D02*
X114468000Y-114004389D01*
X117668400Y-113851989D02*
X114620400Y-113851989D01*
%TO.N,Net-(J59-Pin_1)*%
X122086263Y-54296400D02*
X126686739Y-54296400D01*
X126940400Y-54296400D02*
X127000000Y-54356000D01*
X126686739Y-54296400D02*
X126940400Y-54296400D01*
%TO.N,Net-(U57-SENSEA)*%
X122924463Y-55541000D02*
X122772063Y-55693400D01*
X122924463Y-55541000D02*
X122772063Y-55693400D01*
X125972463Y-55541000D02*
X122924463Y-55541000D01*
X125972463Y-55541000D02*
X122924463Y-55541000D01*
D23*
%TO.N,/Drivers/TIM16_CH1/EN*%
X117932200Y-109647294D02*
X117932200Y-110947200D01*
X118160800Y-109651800D02*
X117932200Y-109647294D01*
%TD*%
M02*
