%TF.GenerationSoftware,KiCad,Pcbnew,7.0.7*%
%TF.CreationDate,2024-01-27T11:11:08-08:00*%
%TF.ProjectId,KASM_PCB_REV1,4b41534d-5f50-4434-925f-524556312e6b,rev?*%
%TF.SameCoordinates,Original*%
%TF.FileFunction,Soldermask,Bot*%
%TF.FilePolarity,Negative*%
%FSLAX46Y46*%
G04 Gerber Fmt 4.6, Leading zero omitted, Abs format (unit mm)*
G04 Created by KiCad (PCBNEW 7.0.7) date 2024-01-27 11:11:08*
%MOMM*%
%LPD*%
G01*
G04 APERTURE LIST*
G04 Aperture macros list*
%AMRoundRect*
0 Rectangle with rounded corners*
0 $1 Rounding radius*
0 $2 $3 $4 $5 $6 $7 $8 $9 X,Y pos of 4 corners*
0 Add a 4 corners polygon primitive as box body*
4,1,4,$2,$3,$4,$5,$6,$7,$8,$9,$2,$3,0*
0 Add four circle primitives for the rounded corners*
1,1,$1+$1,$2,$3*
1,1,$1+$1,$4,$5*
1,1,$1+$1,$6,$7*
1,1,$1+$1,$8,$9*
0 Add four rect primitives between the rounded corners*
20,1,$1+$1,$2,$3,$4,$5,0*
20,1,$1+$1,$4,$5,$6,$7,0*
20,1,$1+$1,$6,$7,$8,$9,0*
20,1,$1+$1,$8,$9,$2,$3,0*%
G04 Aperture macros list end*
%ADD10RoundRect,0.200000X0.200000X0.450000X-0.200000X0.450000X-0.200000X-0.450000X0.200000X-0.450000X0*%
%ADD11O,0.800000X1.300000*%
%ADD12R,1.700000X1.700000*%
%ADD13O,1.700000X1.700000*%
%ADD14C,5.600000*%
%ADD15C,0.600000*%
%ADD16R,2.000000X4.600000*%
%ADD17O,2.000000X4.200000*%
%ADD18O,4.200000X2.000000*%
%ADD19R,2.600000X2.600000*%
%ADD20C,2.600000*%
G04 APERTURE END LIST*
D10*
%TO.C,J38*%
X116974726Y-88409616D03*
D11*
X115724726Y-88409616D03*
%TD*%
D12*
%TO.C,J7*%
X146735800Y-48260000D03*
D13*
X149275800Y-48260000D03*
X151815800Y-48260000D03*
%TD*%
D10*
%TO.C,J44*%
X89146852Y-102713200D03*
D11*
X87896852Y-102713200D03*
%TD*%
D14*
%TO.C,H2*%
X68580000Y-146050000D03*
%TD*%
D10*
%TO.C,J8*%
X75260474Y-130043600D03*
D11*
X74010474Y-130043600D03*
%TD*%
D10*
%TO.C,J40*%
X89752063Y-143658000D03*
D11*
X88502063Y-143658000D03*
%TD*%
D12*
%TO.C,J5*%
X177165000Y-58420000D03*
D13*
X177165000Y-60960000D03*
X177165000Y-63500000D03*
X177165000Y-66040000D03*
X177165000Y-68580000D03*
X177165000Y-71120000D03*
%TD*%
D10*
%TO.C,J35*%
X110046663Y-58182600D03*
D11*
X108796663Y-58182600D03*
%TD*%
D14*
%TO.C,H4*%
X176530000Y-146050000D03*
%TD*%
D10*
%TO.C,J13*%
X82215863Y-58125574D03*
D11*
X80965863Y-58125574D03*
%TD*%
D10*
%TO.C,J48*%
X102890863Y-116493589D03*
D11*
X101640863Y-116493589D03*
%TD*%
D10*
%TO.C,J43*%
X103056852Y-102713200D03*
D11*
X101806852Y-102713200D03*
%TD*%
D15*
%TO.C,U2*%
X146053701Y-140792699D03*
X146053701Y-140005299D03*
X145266301Y-140792699D03*
X145266301Y-140005299D03*
%TD*%
D10*
%TO.C,J52*%
X89693910Y-129933600D03*
D11*
X88443910Y-129933600D03*
%TD*%
D10*
%TO.C,J50*%
X95423488Y-58208000D03*
D11*
X94173488Y-58208000D03*
%TD*%
D10*
%TO.C,J56*%
X88891497Y-73138994D03*
D11*
X87641497Y-73138994D03*
%TD*%
D12*
%TO.C,J3*%
X175900000Y-97678233D03*
D13*
X175900000Y-100218233D03*
%TD*%
D10*
%TO.C,J37*%
X88980863Y-116493589D03*
D11*
X87730863Y-116493589D03*
%TD*%
D10*
%TO.C,J54*%
X75244726Y-88409616D03*
D11*
X73994726Y-88409616D03*
%TD*%
D10*
%TO.C,J41*%
X89154726Y-88409616D03*
D11*
X87904726Y-88409616D03*
%TD*%
D10*
%TO.C,J58*%
X116800863Y-116493589D03*
D11*
X115550863Y-116493589D03*
%TD*%
D10*
%TO.C,J46*%
X103603910Y-129933600D03*
D11*
X102353910Y-129933600D03*
%TD*%
D12*
%TO.C,J6*%
X156845000Y-48260000D03*
D13*
X159385000Y-48260000D03*
X161925000Y-48260000D03*
X164465000Y-48260000D03*
X167005000Y-48260000D03*
%TD*%
D10*
%TO.C,J53*%
X116711497Y-73138994D03*
D11*
X115461497Y-73138994D03*
%TD*%
D10*
%TO.C,J45*%
X103064726Y-88409616D03*
D11*
X101814726Y-88409616D03*
%TD*%
D10*
%TO.C,J42*%
X75236852Y-102713200D03*
D11*
X73986852Y-102713200D03*
%TD*%
D10*
%TO.C,J51*%
X117513910Y-129933600D03*
D11*
X116263910Y-129933600D03*
%TD*%
D10*
%TO.C,J39*%
X75070863Y-116493589D03*
D11*
X73820863Y-116493589D03*
%TD*%
D14*
%TO.C,H1*%
X68580000Y-49530000D03*
%TD*%
D16*
%TO.C,J1*%
X166497000Y-130952000D03*
D17*
X172797000Y-130952000D03*
D18*
X169397000Y-126152000D03*
%TD*%
D12*
%TO.C,J4*%
X175875000Y-88544400D03*
D13*
X175875000Y-91084400D03*
%TD*%
D10*
%TO.C,J57*%
X102801497Y-73138994D03*
D11*
X101551497Y-73138994D03*
%TD*%
D10*
%TO.C,J36*%
X103576888Y-143912000D03*
D11*
X102326888Y-143912000D03*
%TD*%
D10*
%TO.C,J59*%
X125104926Y-58182600D03*
D11*
X123854926Y-58182600D03*
%TD*%
D14*
%TO.C,H3*%
X176530000Y-49530000D03*
%TD*%
D10*
%TO.C,J55*%
X74981497Y-73138994D03*
D11*
X73731497Y-73138994D03*
%TD*%
D10*
%TO.C,J49*%
X116966852Y-102713200D03*
D11*
X115716852Y-102713200D03*
%TD*%
D19*
%TO.C,J2*%
X174853800Y-119562800D03*
D20*
X174853800Y-114482800D03*
%TD*%
D10*
%TO.C,J47*%
X117361863Y-143989555D03*
D11*
X116111863Y-143989555D03*
%TD*%
M02*
