M48
; DRILL file {KiCad 7.0.7} date Sat Jan 27 11:11:08 2024
; FORMAT={-:-/ absolute / inch / decimal}
; #@! TF.CreationDate,2024-01-27T11:11:08-08:00
; #@! TF.GenerationSoftware,Kicad,Pcbnew,7.0.7
; #@! TF.FileFunction,Plated,1,4,PTH
FMAT,2
INCH
; #@! TA.AperFunction,Plated,PTH,ViaDrill
T1C0.0118
; #@! TA.AperFunction,Plated,PTH,ComponentDrill
T2C0.0118
; #@! TA.AperFunction,Plated,PTH,ComponentDrill
T3C0.0197
; #@! TA.AperFunction,Plated,PTH,ComponentDrill
T4C0.0394
; #@! TA.AperFunction,Plated,PTH,ComponentDrill
T5C0.0512
; #@! TA.AperFunction,Plated,PTH,ComponentDrill
T6C0.1260
%
G90
G05
T1
X2.636Y-3.875
X2.637Y-3.562
X2.684Y-4.947
X2.686Y-4.717
X2.688Y-4.422
X2.691Y-4.172
X2.703Y-3.612
X2.703Y-3.852
X2.715Y-4.733
X2.715Y-4.927
X2.72Y-4.395
X2.721Y-4.187
X2.729Y-2.95
X2.729Y-3.289
X2.742Y-2.535
X2.743Y-2.688
X2.7722Y-2.8475
X2.7757Y-4.5544
X2.777Y-3.312
X2.78Y-3.149
X2.7822Y-4.0118
X2.7825Y-3.4487
X2.7832Y-5.0878
X2.79Y-2.7096
X2.792Y-2.5673
X2.8332Y-2.7265
X2.8367Y-4.4334
X2.8432Y-3.8908
X2.8435Y-3.3277
X2.8442Y-4.9668
X2.8602Y-2.7815
X2.8637Y-4.4884
X2.8692Y-2.6205
X2.8702Y-3.9458
X2.8705Y-3.3827
X2.8712Y-5.0218
X2.8727Y-4.3274
X2.8792Y-3.7848
X2.8795Y-3.2217
X2.8802Y-4.8608
X2.9132Y-2.8086
X2.9167Y-4.5154
X2.9233Y-3.9729
X2.9236Y-3.4098
X2.9242Y-5.0489
X2.9447Y-2.8095
X2.9482Y-4.5164
X2.9547Y-3.9738
X2.9551Y-3.4107
X2.9557Y-5.0498
X2.9692Y-2.6185
X2.9727Y-4.3254
X2.9792Y-3.7828
X2.9795Y-3.2197
X2.9802Y-4.8588
X2.9862Y-2.7755
X2.9897Y-4.4824
X2.9962Y-3.9398
X2.9965Y-3.3767
X2.9972Y-5.0158
X3.012Y-3.1706
X3.0159Y-2.7281
X3.0195Y-4.435
X3.026Y-3.8925
X3.0263Y-3.3293
X3.0269Y-4.9685
X3.043Y-2.7122
X3.0449Y-4.4164
X3.05Y-2.4
X3.0517Y-3.3108
X3.0531Y-3.8765
X3.0533Y-4.9512
X3.057Y-2.2564
X3.0702Y-2.7645
X3.075Y-1.943
X3.075Y-2.113
X3.0802Y-4.4714
X3.0802Y-3.9288
X3.0802Y-5.0048
X3.082Y-4.302
X3.084Y-4.258
X3.086Y-3.716
X3.0862Y-3.401
X3.087Y-3.761
X3.09Y-4.836
X3.091Y-4.795
X3.097Y-1.971
X3.097Y-2.083
X3.118Y-2.1354
X3.141Y-5.244
X3.1416Y-2.6438
X3.142Y-5.48
X3.145Y-2.1904
X3.1505Y-3.8088
X3.151Y-4.3508
X3.1526Y-4.8848
X3.154Y-2.0294
X3.156Y-2.595
X3.1572Y-3.2811
X3.1624Y-3.206
X3.174Y-5.249
X3.174Y-5.463
X3.184Y-3.306
X3.185Y-2.986
X3.198Y-2.2175
X3.222Y-3.629
X3.222Y-3.873
X3.2295Y-2.2184
X3.254Y-2.0274
X3.257Y-2.688
X3.259Y-3.006
X3.262Y-4.199
X3.262Y-4.415
X3.268Y-3.641
X3.268Y-3.853
X3.271Y-2.1844
X3.292Y-4.748
X3.292Y-4.943
X3.3008Y-2.137
X3.302Y-4.394
X3.303Y-4.215
X3.309Y-3.289
X3.311Y-3.0276
X3.3198Y-2.8475
X3.3233Y-4.5544
X3.325Y-4.762
X3.325Y-4.924
X3.3299Y-4.0118
X3.33Y-2.12
X3.33Y-2.4
X3.3302Y-3.4487
X3.345Y-2.524
X3.346Y-2.7096
X3.3514Y-5.0835
X3.3537Y-5.6238
X3.3602Y-2.1734
X3.3808Y-2.7265
X3.3843Y-4.4334
X3.3909Y-3.8908
X3.3912Y-3.3277
X3.4078Y-2.7815
X3.4113Y-4.4884
X3.4124Y-4.9625
X3.4147Y-5.5028
X3.4168Y-2.6205
X3.4179Y-3.9458
X3.4182Y-3.3827
X3.4203Y-4.3274
X3.4269Y-3.7848
X3.4272Y-3.2217
X3.4312Y-2.0544
X3.437Y-1.998
X3.4394Y-5.0175
X3.4417Y-5.5578
X3.4484Y-4.8565
X3.4507Y-5.3968
X3.4609Y-2.8086
X3.4644Y-4.5154
X3.4709Y-3.9729
X3.4712Y-3.4098
X3.4923Y-2.8095
X3.4925Y-5.0446
X3.4947Y-5.5849
X3.4959Y-4.5164
X3.5024Y-3.9738
X3.5027Y-3.4107
X3.5168Y-2.6185
X3.5203Y-4.3254
X3.5239Y-5.0455
X3.5262Y-5.5858
X3.5269Y-3.7828
X3.5272Y-3.2197
X3.5338Y-2.7755
X3.5373Y-4.4824
X3.5439Y-3.9398
X3.5442Y-3.3767
X3.5484Y-4.8545
X3.5507Y-5.3948
X3.5636Y-2.7281
X3.5654Y-5.0115
X3.5671Y-4.435
X3.5677Y-5.5518
X3.5736Y-3.8925
X3.5739Y-3.3293
X3.577Y-2.2597
X3.59Y-2.3973
X3.59Y-2.71
X3.5918Y-2.1182
X3.592Y-1.897
X3.5934Y-4.4178
X3.5952Y-4.9641
X3.5975Y-5.5045
X3.6Y-3.31
X3.6019Y-3.8787
X3.615Y-2.097
X3.617Y-1.921
X3.6202Y-2.7645
X3.6202Y-4.4714
X3.6225Y-4.9486
X3.6239Y-5.4875
X3.627Y-3.213
X3.63Y-3.173
X3.6302Y-3.3657
X3.6302Y-3.9288
X3.633Y-3.725
X3.633Y-3.766
X3.635Y-4.303
X3.638Y-2.1387
X3.639Y-4.261
X3.6502Y-5.0005
X3.652Y-4.836
X3.657Y-4.79
X3.658Y-5.372
X3.659Y-5.328
X3.6602Y-5.54
X3.665Y-2.1937
X3.674Y-2.0327
X3.691Y-2.6448
X3.6914Y-4.3508
X3.698Y-2.598
X3.7006Y-3.2468
X3.7009Y-3.8088
X3.718Y-2.2207
X3.7214Y-4.8808
X3.7316Y-5.4199
X3.7495Y-2.2217
X3.774Y-2.0307
X3.791Y-2.1877
X3.811Y-2.688
X3.811Y-3.121
X3.82Y-4.271
X3.8207Y-2.1403
X3.821Y-4.395
X3.823Y-3.685
X3.823Y-3.852
X3.827Y-5.304
X3.829Y-5.492
X3.843Y-2.069
X3.85Y-2.3973
X3.8504Y-2.1298
X3.853Y-3.079
X3.853Y-3.283
X3.854Y-3.8739
X3.856Y-3.6588
X3.863Y-5.323
X3.863Y-5.474
X3.8675Y-2.8475
X3.871Y-4.5544
X3.8775Y-4.0118
X3.8778Y-3.4487
X3.878Y-1.995
X3.878Y-4.95
X3.88Y-4.773
X3.8802Y-2.176
X3.89Y-4.4165
X3.891Y-4.2281
X3.892Y-2.5
X3.893Y-2.7096
X3.898Y-5.6338
X3.898Y-3.3108
X3.899Y-5.0835
X3.901Y-3.055
X3.911Y-4.926
X3.914Y-4.805
X3.9285Y-2.7265
X3.932Y-4.4334
X3.9385Y-3.8908
X3.9388Y-3.3277
X3.9508Y-2.056
X3.9555Y-2.7815
X3.959Y-4.4884
X3.959Y-5.5128
X3.96Y-4.9625
X3.9645Y-2.6205
X3.9655Y-3.9458
X3.9658Y-3.3827
X3.968Y-4.3274
X3.9745Y-3.7848
X3.9748Y-3.2217
X3.986Y-5.5678
X3.987Y-5.0175
X3.995Y-5.4068
X3.996Y-4.8565
X4.0085Y-2.8086
X4.012Y-4.5154
X4.0186Y-3.9729
X4.0189Y-3.4098
X4.039Y-5.5949
X4.04Y-2.8095
X4.0401Y-5.0446
X4.0435Y-4.5164
X4.05Y-3.9738
X4.0503Y-3.4107
X4.0645Y-2.6185
X4.068Y-4.3254
X4.0705Y-5.5958
X4.0716Y-5.0455
X4.0745Y-3.7828
X4.0748Y-3.2197
X4.077Y-2.59
X4.0815Y-2.7755
X4.085Y-4.4824
X4.0915Y-3.9398
X4.0918Y-3.3767
X4.095Y-5.4048
X4.096Y-4.8545
X4.1112Y-2.7281
X4.112Y-5.5618
X4.113Y-5.0115
X4.1147Y-4.435
X4.1213Y-3.8925
X4.1216Y-3.3293
X4.124Y-3.821
X4.13Y-2.3973
X4.1339Y-2.7063
X4.137Y-1.83
X4.137Y-2.119
X4.1417Y-5.5145
X4.1418Y-4.4189
X4.1428Y-4.9641
X4.1501Y-3.8799
X4.1509Y-3.318
X4.1518Y-4.934
X4.1527Y-2.2587
X4.164Y-1.87
X4.164Y-2.099
X4.1664Y-5.4949
X4.1702Y-2.7645
X4.1702Y-4.4714
X4.1718Y-4.274
X4.1718Y-4.317
X4.179Y-3.738
X4.1802Y-3.3657
X4.1802Y-3.9288
X4.1809Y-3.2094
X4.183Y-3.178
X4.1902Y-5.0
X4.2Y-5.348
X4.2Y-5.389
X4.2002Y-5.5508
X4.2137Y-2.1377
X4.234Y-4.8008
X4.2407Y-2.1927
X4.2418Y-4.3508
X4.2423Y-2.6448
X4.2497Y-2.0317
X4.2503Y-3.8088
X4.252Y-3.2468
X4.267Y-5.301
X4.268Y-2.595
X4.2719Y-5.4309
X4.275Y-4.09
X4.2937Y-2.2197
X4.305Y-4.104
X4.305Y-5.323
X4.3252Y-2.2207
X4.3497Y-2.0297
X4.3565Y-4.826
X4.358Y-1.999
X4.359Y-4.946
X4.3667Y-2.1867
X4.3703Y-3.8523
X4.381Y-3.706
X4.385Y-4.393
X4.386Y-4.293
X4.388Y-4.826
X4.388Y-4.924
X4.3965Y-2.1393
X4.405Y-3.7276
X4.407Y-2.688
X4.408Y-2.476
X4.411Y-3.8739
X4.4151Y-2.8475
X4.4186Y-4.5544
X4.42Y-2.3973
X4.4208Y-2.1193
X4.4251Y-4.0118
X4.4255Y-3.4487
X4.427Y-4.2714
X4.427Y-4.4165
X4.428Y-2.958
X4.4282Y-3.2892
X4.432Y-2.7096
X4.435Y-2.4544
X4.4407Y-5.6369
X4.4467Y-5.0835
X4.4502Y-2.1757
X4.457Y-3.0994
X4.457Y-3.3108
X4.457Y-5.2156
X4.46Y-5.494
X4.4761Y-2.7265
X4.4796Y-4.4334
X4.483Y-5.4724
X4.485Y-5.271
X4.4861Y-3.8908
X4.4865Y-3.3277
X4.5017Y-5.5159
X4.5031Y-2.7815
X4.5066Y-4.4884
X4.5077Y-4.9625
X4.5121Y-2.6205
X4.5131Y-3.9458
X4.5135Y-3.3827
X4.5156Y-4.3274
X4.5211Y-2.0557
X4.5221Y-3.7848
X4.5225Y-3.2217
X4.5287Y-5.5709
X4.5347Y-5.0175
X4.5377Y-5.4099
X4.5437Y-4.8565
X4.546Y-2.005
X4.5561Y-2.8086
X4.5597Y-4.5154
X4.5662Y-3.9729
X4.5665Y-3.4098
X4.5817Y-5.598
X4.5876Y-2.8095
X4.5877Y-5.0446
X4.5911Y-4.5164
X4.5977Y-3.9738
X4.598Y-3.4107
X4.6121Y-2.6185
X4.6132Y-5.5989
X4.6156Y-4.3254
X4.6192Y-5.0455
X4.621Y-3.1706
X4.6221Y-3.7828
X4.6225Y-3.2197
X4.6291Y-2.7755
X4.6326Y-4.4824
X4.6377Y-5.4079
X4.6391Y-3.9398
X4.6395Y-3.3767
X4.643Y-4.368
X4.6437Y-4.8545
X4.652Y-4.317
X4.6547Y-5.5649
X4.6588Y-2.7281
X4.6607Y-5.0115
X4.6624Y-4.435
X4.6689Y-3.8925
X4.6692Y-3.3293
X4.6797Y-4.4088
X4.68Y-2.3973
X4.6828Y-2.7076
X4.6845Y-5.5175
X4.6904Y-4.9641
X4.6923Y-3.3079
X4.6923Y-3.7542
X4.696Y-3.8765
X4.7102Y-4.4714
X4.7104Y-5.4997
X4.72Y-4.95
X4.7202Y-2.7645
X4.7239Y-2.4409
X4.73Y-2.098
X4.7302Y-3.3657
X4.7302Y-3.9288
X4.7402Y-5.5539
X4.7416Y-5.329
X4.7416Y-5.37
X4.7455Y-2.2587
X4.7502Y-5.0
X4.765Y-2.1208
X4.766Y-2.419
X4.77Y-3.21
X4.7785Y-5.4
X4.7812Y-4.3508
X4.7907Y-2.6448
X4.8016Y-3.8088
X4.804Y-2.709
X4.804Y-3.6357
X4.806Y-2.6
X4.8065Y-2.1377
X4.827Y-4.002
X4.827Y-5.273
X4.8335Y-2.1927
X4.8425Y-2.0317
X4.8486Y-4.882
X4.849Y-2.77
X4.863Y-4.8008
X4.87Y-5.29
X4.87Y-5.39
X4.87Y-5.49
X4.87Y-5.59
X4.87Y-5.69
X4.87Y-5.79
X4.872Y-2.6857
X4.872Y-4.2031
X4.8866Y-2.2197
X4.893Y-4.82
X4.898Y-2.66
X4.9181Y-2.2207
X4.9248Y-5.2155
X4.933Y-4.2031
X4.9425Y-2.0297
X4.952Y-5.023
X4.954Y-5.2274
X4.959Y-4.3997
X4.9595Y-2.1867
X4.97Y-5.29
X4.97Y-5.39
X4.97Y-5.49
X4.97Y-5.59
X4.97Y-5.69
X4.97Y-5.79
X4.987Y-5.249
X4.988Y-4.1279
X5.0Y-2.14
X5.005Y-3.459
X5.009Y-3.825
X5.01Y-2.983
X5.01Y-3.782
X5.011Y-4.3237
X5.016Y-2.067
X5.0173Y-2.3973
X5.0188Y-2.1147
X5.02Y-4.822
X5.026Y-3.335
X5.027Y-3.0276
X5.031Y-4.893
X5.056Y-3.055
X5.056Y-3.447
X5.058Y-2.5673
X5.063Y-1.9916
X5.077Y-3.755
X5.077Y-3.9
X5.081Y-2.188
X5.085Y-2.82
X5.086Y-2.936
X5.0873Y-4.699
X5.0874Y-3.99
X5.088Y-3.077
X5.089Y-3.417
X5.109Y-3.4933
X5.109Y-4.779
X5.11Y-2.5456
X5.1108Y-3.3942
X5.1219Y-2.06
X5.132Y-3.371
X5.133Y-3.01
X5.142Y-2.957
X5.143Y-2.729
X5.146Y-4.7124
X5.147Y-3.771
X5.165Y-2.018
X5.165Y-2.524
X5.166Y-3.178
X5.175Y-4.757
X5.187Y-2.632
X5.189Y-5.5309
X5.19Y-5.4389
X5.19Y-5.6229
X5.206Y-3.029
X5.214Y-4.734
X5.216Y-3.517
X5.221Y-3.121
X5.221Y-3.355
X5.226Y-2.897
X5.2356Y-4.025
X5.2356Y-4.681
X5.241Y-2.843
X5.2896Y-3.7952
X5.321Y-3.947
X5.3337Y-4.369
X5.3348Y-4.475
X5.335Y-4.801
X5.337Y-4.691
X5.351Y-2.5
X5.351Y-2.747
X5.354Y-2.994
X5.361Y-2.943
X5.368Y-3.038
X5.373Y-4.369
X5.374Y-2.787
X5.3741Y-4.475
X5.375Y-2.869
X5.404Y-4.248
X5.4072Y-2.8371
X5.4124Y-4.369
X5.4135Y-4.475
X5.4256Y-3.1435
X5.4256Y-4.2247
X5.436Y-5.7169
X5.445Y-3.007
X5.447Y-2.8307
X5.449Y-5.3259
X5.4518Y-4.369
X5.4529Y-4.475
X5.462Y-3.978
X5.468Y-5.078
X5.487Y-4.089
X5.516Y-2.556
X5.518Y-2.512
X5.522Y-3.331
X5.525Y-4.423
X5.525Y-5.1119
X5.539Y-4.369
X5.5502Y-2.632
X5.56Y-2.806
X5.561Y-2.711
X5.562Y-2.886
X5.567Y-3.325
X5.568Y-3.043
X5.568Y-3.076
X5.5684Y-3.006
X5.5784Y-4.369
X5.581Y-4.293
X5.5811Y-2.6739
X5.583Y-2.779
X5.588Y-2.834
X5.601Y-3.325
X5.612Y-4.1279
X5.6154Y-3.147
X5.6177Y-4.369
X5.618Y-2.556
X5.618Y-2.679
X5.619Y-2.513
X5.6284Y-2.747
X5.637Y-3.516
X5.6413Y-5.4529
X5.6473Y-2.5675
X5.656Y-3.679
X5.6571Y-4.369
X5.6612Y-2.4008
X5.665Y-2.206
X5.6717Y-3.0057
X5.6717Y-2.685
X5.6717Y-3.087
X5.673Y-3.176
X5.678Y-4.271
X5.6839Y-5.29
X5.685Y-1.9217
X5.6856Y-5.3379
X5.694Y-3.11
X5.694Y-3.279
X5.695Y-3.595
X5.6965Y-4.369
X5.715Y-1.898
X5.715Y-2.206
X5.715Y-2.396
X5.716Y-2.686
X5.718Y-2.556
X5.735Y-5.6179
X5.738Y-4.661
X5.7383Y-3.917
X5.74Y-3.087
X5.7455Y-4.444
X5.752Y-1.9916
X5.752Y-3.517
X5.753Y-3.279
X5.764Y-2.206
X5.767Y-2.4
X5.7684Y-2.548
X5.7684Y-2.701
X5.783Y-2.011
X5.7839Y-5.4
X5.7849Y-4.444
X5.79Y-2.866
X5.793Y-3.278
X5.793Y-3.3983
X5.805Y-5.5889
X5.811Y-3.706
X5.812Y-2.7254
X5.8146Y-3.333
X5.815Y-2.279
X5.815Y-5.4179
X5.816Y-2.205
X5.8243Y-4.444
X5.829Y-2.538
X5.829Y-3.148
X5.834Y-1.97
X5.8443Y-3.1755
X5.848Y-4.065
X5.851Y-2.338
X5.851Y-3.28
X5.851Y-3.3766
X5.856Y-2.142
X5.861Y-5.5829
X5.861Y-5.6169
X5.8636Y-4.444
X5.871Y-2.441
X5.871Y-3.659
X5.872Y-2.571
X5.873Y-2.274
X5.873Y-3.309
X5.874Y-2.164
X5.8827Y-2.704
X5.8827Y-2.808
X5.888Y-4.831
X5.888Y-4.876
X5.891Y-3.111
X5.891Y-3.176
X5.903Y-4.444
X5.9044Y-2.4544
X5.905Y-2.964
X5.908Y-4.183
X5.911Y-5.6309
X5.92Y-3.159
X5.926Y-1.943
X5.926Y-2.885
X5.9274Y-3.317
X5.93Y-3.619
X5.938Y-4.881
X5.9476Y-2.683
X5.9476Y-2.836
X5.9485Y-4.392
X5.949Y-3.279
X5.949Y-3.355
X5.951Y-2.092
X5.955Y-5.6309
X5.96Y-5.3729
X5.967Y-3.429
X5.9674Y-2.476
X5.9675Y-2.57
X5.971Y-3.171
X5.9788Y-2.9865
X5.9879Y-4.392
X5.988Y-4.881
X5.989Y-2.022
X5.989Y-2.5381
X6.003Y-2.9424
X6.004Y-3.45
X6.005Y-3.004
X6.007Y-5.6329
X6.0108Y-2.57
X6.0134Y-2.681
X6.0134Y-2.807
X6.02Y-5.3579
X6.0273Y-4.392
X6.035Y-2.423
X6.036Y-2.925
X6.036Y-3.325
X6.048Y-4.881
X6.051Y-5.6329
X6.061Y-1.831
X6.061Y-2.827
X6.0666Y-4.392
X6.074Y-3.325
X6.081Y-3.24
X6.098Y-4.881
X6.106Y-4.392
X6.108Y-3.194
X6.109Y-3.4954
X6.109Y-5.6329
X6.134Y-4.213
X6.148Y-4.881
X6.153Y-5.6329
X6.167Y-2.9447
X6.176Y-2.589
X6.177Y-2.7454
X6.177Y-2.88
X6.181Y-3.104
X6.181Y-3.731
X6.1979Y-4.392
X6.198Y-4.881
X6.199Y-4.498
X6.2022Y-3.77
X6.207Y-5.6329
X6.213Y-2.7
X6.214Y-2.662
X6.22Y-3.025
X6.22Y-3.5734
X6.2373Y-4.392
X6.2384Y-4.498
X6.247Y-2.71
X6.251Y-5.6329
X6.255Y-2.985
X6.2702Y-3.7978
X6.276Y-2.394
X6.2766Y-4.392
X6.2777Y-4.498
X6.285Y-2.807
X6.285Y-3.472
X6.316Y-4.392
X6.3171Y-4.498
X6.324Y-3.082
X6.326Y-1.861
X6.3416Y-3.5404
X6.3476Y-2.767
X6.348Y-3.822
X6.358Y-4.001
X6.369Y-3.044
X6.388Y-2.788
X6.391Y-4.023
X6.4052Y-3.7228
X6.414Y-2.845
X6.42Y-3.071
X6.4232Y-3.5608
X6.442Y-5.024
X6.4665Y-3.121
X6.4682Y-3.5618
X6.48Y-3.216
X6.4881Y-2.091
X6.505Y-2.908
X6.5054Y-4.1362
X6.51Y-5.465
X6.518Y-4.791
X6.527Y-4.16
X6.528Y-2.512
X6.529Y-5.527
X6.529Y-5.575
X6.533Y-4.832
X6.545Y-5.479
X6.553Y-3.119
X6.582Y-5.575
X6.5832Y-3.8198
X6.585Y-5.485
X6.588Y-4.793
X6.6Y-3.14
X6.603Y-2.491
X6.622Y-2.927
X6.622Y-3.322
X6.633Y-3.243
X6.635Y-3.078
X6.706Y-2.601
X6.706Y-2.88
X6.785Y-3.916
X6.787Y-2.799
X6.84Y-2.402
X6.84Y-2.537
X6.858Y-3.323
X6.859Y-2.926
X7.037Y-3.079
T2
X5.69Y-4.703
X5.69Y-4.7502
X5.69Y-4.8014
X5.69Y-4.8447
X5.7191Y-5.512
X5.7191Y-5.543
X5.7372Y-4.703
X5.7372Y-4.7502
X5.7372Y-4.8014
X5.7372Y-4.8447
X5.7501Y-5.512
X5.7501Y-5.543
T3
X2.9028Y-2.8795
X2.9063Y-4.5864
X2.9129Y-4.0438
X2.9132Y-3.4807
X2.9138Y-5.1198
X2.952Y-2.8795
X2.9555Y-4.5864
X2.9621Y-4.0438
X2.9624Y-3.4807
X2.963Y-5.1198
X3.1876Y-2.2884
X3.2368Y-2.2884
X3.4505Y-2.8795
X3.454Y-4.5864
X3.4605Y-4.0438
X3.4608Y-3.4807
X3.482Y-5.1155
X3.4843Y-5.6558
X3.4997Y-2.8795
X3.5032Y-4.5864
X3.5097Y-4.0438
X3.51Y-3.4807
X3.5313Y-5.1155
X3.5335Y-5.6558
X3.7076Y-2.2917
X3.7568Y-2.2917
X3.9981Y-2.8795
X4.0016Y-4.5864
X4.0081Y-4.0438
X4.0085Y-3.4807
X4.0286Y-5.6658
X4.0297Y-5.1155
X4.0473Y-2.8795
X4.0508Y-4.5864
X4.0574Y-4.0438
X4.0577Y-3.4807
X4.0778Y-5.6658
X4.0789Y-5.1155
X4.2833Y-2.2907
X4.3325Y-2.2907
X4.5457Y-2.8795
X4.5492Y-4.5864
X4.5558Y-4.0438
X4.5561Y-3.4807
X4.5713Y-5.6689
X4.5773Y-5.1155
X4.5949Y-2.8795
X4.5985Y-4.5864
X4.605Y-4.0438
X4.6053Y-3.4807
X4.6205Y-5.6689
X4.6265Y-5.1155
X4.8762Y-2.2907
X4.9254Y-2.2907
T4
X5.777Y-1.9
X5.877Y-1.9
X5.977Y-1.9
X6.175Y-1.9
X6.275Y-1.9
X6.375Y-1.9
X6.475Y-1.9
X6.575Y-1.9
X6.9242Y-3.486
X6.9242Y-3.586
X6.9252Y-3.8456
X6.9252Y-3.9456
X6.975Y-2.3
X6.975Y-2.4
X6.975Y-2.5
X6.975Y-2.6
X6.975Y-2.7
X6.975Y-2.8
T5
X6.884Y-4.5072
X6.884Y-4.7072
T6
X2.7Y-1.95
X2.7Y-5.75
X6.95Y-1.95
X6.95Y-5.75
T4
G00X6.555Y-5.2068
M15
G01X6.555Y-5.1044
M16
G05
G00X6.6259Y-4.9666
M15
G01X6.7125Y-4.9666
M16
G05
G00X6.803Y-5.1989
M15
G01X6.803Y-5.1123
M16
G05
T0
M30
